<svg xmlns="http://www.w3.org/2000/svg" xmlns:xlink="http://www.w3.org/1999/xlink" width="1200" zoomAndPan="magnify" viewBox="0 0 900 1379.999937" height="1840" preserveAspectRatio="xMidYMid meet" version="1.0"><defs><filter x="0%" y="0%" width="100%" height="100%" id="6ea0835ede"><feColorMatrix values="0 0 0 0 1 0 0 0 0 1 0 0 0 0 1 0 0 0 1 0" color-interpolation-filters="sRGB"/></filter><g/><mask id="923cd822b8"><g filter="url(#6ea0835ede)"><rect x="-90" width="1080" fill="#000000" y="-137.999994" height="1655.999924" fill-opacity="0.9"/></g></mask><clipPath id="4e6df780d4"><path d="M 0.441406 0.441406 L 645.558594 0.441406 L 645.558594 645.558594 L 0.441406 645.558594 Z M 0.441406 0.441406 " clip-rule="nonzero"/></clipPath><clipPath id="b4deffbc99"><rect x="0" width="646" y="0" height="646"/></clipPath><clipPath id="5082673346"><path d="M 54.785156 46.261719 L 842.292969 46.261719 L 842.292969 1310.347656 L 54.785156 1310.347656 Z M 54.785156 46.261719 " clip-rule="nonzero"/></clipPath><clipPath id="33304c6f7d"><path d="M 0.785156 0.261719 L 788.292969 0.261719 L 788.292969 1264.347656 L 0.785156 1264.347656 Z M 0.785156 0.261719 " clip-rule="nonzero"/></clipPath><clipPath id="0bea24ee40"><rect x="0" width="789" y="0" height="1265"/></clipPath><clipPath id="2d2e22f11a"><path d="M 39.347656 57.957031 L 857.726562 57.957031 L 857.726562 1323 L 39.347656 1323 Z M 39.347656 57.957031 " clip-rule="nonzero"/></clipPath><clipPath id="505a97a7c0"><path d="M 448.539062 57.957031 C 557.0625 57.957031 661.140625 101.066406 737.878906 177.804688 C 814.617188 254.542969 857.726562 358.625 857.726562 467.148438 L 857.726562 912.851562 C 857.726562 1021.375 814.617188 1125.457031 737.878906 1202.195312 C 661.140625 1278.933594 557.0625 1322.042969 448.539062 1322.042969 C 340.015625 1322.042969 235.933594 1278.933594 159.195312 1202.195312 C 82.457031 1125.457031 39.347656 1021.375 39.347656 912.851562 L 39.347656 467.148438 C 39.347656 358.625 82.457031 254.542969 159.195312 177.804688 C 235.933594 101.066406 340.015625 57.957031 448.539062 57.957031 Z M 448.539062 57.957031 " clip-rule="nonzero"/></clipPath><clipPath id="5516ce25f8"><path d="M 0.347656 0.957031 L 818.726562 0.957031 L 818.726562 1264 L 0.347656 1264 Z M 0.347656 0.957031 " clip-rule="nonzero"/></clipPath><clipPath id="15b775f7f9"><path d="M 409.539062 0.957031 C 518.0625 0.957031 622.140625 44.066406 698.878906 120.804688 C 775.617188 197.542969 818.726562 301.625 818.726562 410.148438 L 818.726562 855.851562 C 818.726562 964.375 775.617188 1068.457031 698.878906 1145.195312 C 622.140625 1221.933594 518.0625 1265.042969 409.539062 1265.042969 C 301.015625 1265.042969 196.933594 1221.933594 120.195312 1145.195312 C 43.457031 1068.457031 0.347656 964.375 0.347656 855.851562 L 0.347656 410.148438 C 0.347656 301.625 43.457031 197.542969 120.195312 120.804688 C 196.933594 44.066406 301.015625 0.957031 409.539062 0.957031 Z M 409.539062 0.957031 " clip-rule="nonzero"/></clipPath><clipPath id="dae496ea90"><rect x="0" width="819" y="0" height="1266"/></clipPath><clipPath id="82cc6e42b3"><path d="M 39.347656 57.957031 L 857.597656 57.957031 L 857.597656 1321.707031 L 39.347656 1321.707031 Z M 39.347656 57.957031 " clip-rule="nonzero"/></clipPath><clipPath id="231462102d"><path d="M 448.539062 57.957031 C 557.058594 57.957031 661.140625 101.066406 737.875 177.804688 C 814.613281 254.542969 857.726562 358.621094 857.726562 467.144531 L 857.726562 912.847656 C 857.726562 1021.371094 814.613281 1125.449219 737.875 1202.1875 C 661.140625 1278.925781 557.058594 1322.035156 448.539062 1322.035156 C 340.015625 1322.035156 235.933594 1278.925781 159.199219 1202.1875 C 82.460938 1125.449219 39.347656 1021.371094 39.347656 912.847656 L 39.347656 467.144531 C 39.347656 358.621094 82.460938 254.542969 159.199219 177.804688 C 235.933594 101.066406 340.015625 57.957031 448.539062 57.957031 Z M 448.539062 57.957031 " clip-rule="nonzero"/></clipPath><clipPath id="def50dc452"><path d="M 129.203125 219.253906 L 770.453125 219.253906 L 770.453125 1145.503906 L 129.203125 1145.503906 Z M 129.203125 219.253906 " clip-rule="nonzero"/></clipPath><clipPath id="dad1b30456"><rect x="0" width="275" y="0" height="73"/></clipPath></defs><path fill="#3e3b5b" d="M 75 0 L 825 0 C 826.226562 0 827.453125 0.03125 828.679688 0.0898438 C 829.90625 0.152344 831.128906 0.242188 832.351562 0.359375 C 833.574219 0.480469 834.789062 0.632812 836.003906 0.8125 C 837.21875 0.992188 838.429688 1.203125 839.632812 1.441406 C 840.835938 1.679688 842.03125 1.949219 843.222656 2.246094 C 844.414062 2.546875 845.597656 2.875 846.769531 3.230469 C 847.945312 3.585938 849.109375 3.96875 850.265625 4.382812 C 851.421875 4.796875 852.566406 5.238281 853.699219 5.710938 C 854.835938 6.179688 855.957031 6.675781 857.066406 7.199219 C 858.175781 7.726562 859.273438 8.277344 860.355469 8.855469 C 861.4375 9.433594 862.503906 10.039062 863.558594 10.671875 C 864.609375 11.300781 865.648438 11.957031 866.667969 12.640625 C 867.6875 13.320312 868.691406 14.027344 869.675781 14.757812 C 870.664062 15.492188 871.628906 16.246094 872.578125 17.023438 C 873.527344 17.804688 874.457031 18.605469 875.367188 19.429688 C 876.277344 20.253906 877.164062 21.097656 878.03125 21.96875 C 878.902344 22.835938 879.746094 23.722656 880.570312 24.632812 C 881.394531 25.542969 882.195312 26.472656 882.976562 27.421875 C 883.753906 28.371094 884.507812 29.335938 885.242188 30.324219 C 885.972656 31.308594 886.679688 32.3125 887.359375 33.332031 C 888.042969 34.351562 888.699219 35.390625 889.328125 36.441406 C 889.960938 37.496094 890.566406 38.5625 891.144531 39.644531 C 891.722656 40.726562 892.273438 41.824219 892.800781 42.933594 C 893.324219 44.042969 893.820312 45.164062 894.289062 46.296875 C 894.761719 47.433594 895.203125 48.578125 895.617188 49.734375 C 896.027344 50.890625 896.414062 52.054688 896.769531 53.230469 C 897.125 54.402344 897.453125 55.585938 897.753906 56.777344 C 898.050781 57.96875 898.320312 59.164062 898.558594 60.367188 C 898.796875 61.570312 899.007812 62.78125 899.1875 63.996094 C 899.367188 65.210938 899.519531 66.425781 899.640625 67.648438 C 899.757812 68.871094 899.847656 70.09375 899.910156 71.320312 C 899.96875 72.546875 900 73.773438 900 75 L 900 1305 C 900 1306.226562 899.96875 1307.453125 899.910156 1308.679688 C 899.847656 1309.90625 899.757812 1311.128906 899.640625 1312.351562 C 899.519531 1313.574219 899.367188 1314.789062 899.1875 1316.003906 C 899.007812 1317.21875 898.796875 1318.425781 898.558594 1319.632812 C 898.320312 1320.835938 898.050781 1322.03125 897.753906 1323.222656 C 897.453125 1324.414062 897.125 1325.597656 896.769531 1326.769531 C 896.414062 1327.945312 896.027344 1329.109375 895.617188 1330.265625 C 895.203125 1331.421875 894.761719 1332.566406 894.289062 1333.699219 C 893.820312 1334.835938 893.324219 1335.957031 892.800781 1337.066406 C 892.273438 1338.175781 891.722656 1339.273438 891.144531 1340.355469 C 890.566406 1341.4375 889.960938 1342.503906 889.328125 1343.558594 C 888.699219 1344.609375 888.042969 1345.648438 887.359375 1346.667969 C 886.679688 1347.6875 885.972656 1348.691406 885.242188 1349.675781 C 884.507812 1350.664062 883.753906 1351.628906 882.976562 1352.578125 C 882.195312 1353.527344 881.394531 1354.457031 880.570312 1355.367188 C 879.746094 1356.277344 878.902344 1357.164062 878.03125 1358.03125 C 877.164062 1358.902344 876.277344 1359.746094 875.367188 1360.570312 C 874.457031 1361.394531 873.527344 1362.195312 872.578125 1362.976562 C 871.628906 1363.753906 870.664062 1364.507812 869.675781 1365.242188 C 868.691406 1365.972656 867.6875 1366.679688 866.667969 1367.359375 C 865.648438 1368.042969 864.609375 1368.699219 863.558594 1369.328125 C 862.503906 1369.960938 861.4375 1370.566406 860.355469 1371.144531 C 859.273438 1371.722656 858.175781 1372.273438 857.066406 1372.800781 C 855.957031 1373.324219 854.835938 1373.820312 853.699219 1374.289062 C 852.566406 1374.761719 851.421875 1375.203125 850.265625 1375.617188 C 849.109375 1376.027344 847.945312 1376.414062 846.769531 1376.769531 C 845.597656 1377.125 844.414062 1377.453125 843.222656 1377.753906 C 842.03125 1378.050781 840.835938 1378.320312 839.632812 1378.558594 C 838.429688 1378.796875 837.21875 1379.007812 836.003906 1379.1875 C 834.789062 1379.367188 833.574219 1379.519531 832.351562 1379.636719 C 831.128906 1379.757812 829.90625 1379.847656 828.679688 1379.910156 C 827.453125 1379.96875 826.226562 1380 825 1380 L 75 1380 C 73.773438 1380 72.546875 1379.96875 71.320312 1379.910156 C 70.09375 1379.847656 68.871094 1379.757812 67.648438 1379.636719 C 66.425781 1379.519531 65.210938 1379.367188 63.996094 1379.1875 C 62.78125 1379.007812 61.570312 1378.796875 60.367188 1378.558594 C 59.164062 1378.320312 57.96875 1378.050781 56.777344 1377.753906 C 55.585938 1377.453125 54.402344 1377.125 53.230469 1376.769531 C 52.054688 1376.414062 50.890625 1376.027344 49.734375 1375.617188 C 48.578125 1375.203125 47.433594 1374.761719 46.296875 1374.289062 C 45.164062 1373.820312 44.042969 1373.324219 42.933594 1372.800781 C 41.824219 1372.273438 40.726562 1371.722656 39.644531 1371.144531 C 38.5625 1370.566406 37.496094 1369.960938 36.441406 1369.328125 C 35.390625 1368.699219 34.351562 1368.042969 33.332031 1367.359375 C 32.3125 1366.679688 31.308594 1365.972656 30.324219 1365.242188 C 29.335938 1364.507812 28.371094 1363.753906 27.421875 1362.976562 C 26.472656 1362.195312 25.542969 1361.394531 24.632812 1360.570312 C 23.722656 1359.746094 22.835938 1358.902344 21.96875 1358.03125 C 21.097656 1357.164062 20.253906 1356.277344 19.429688 1355.367188 C 18.605469 1354.457031 17.804688 1353.527344 17.023438 1352.578125 C 16.246094 1351.628906 15.492188 1350.664062 14.757812 1349.675781 C 14.027344 1348.691406 13.320312 1347.6875 12.640625 1346.667969 C 11.957031 1345.648438 11.300781 1344.609375 10.671875 1343.558594 C 10.039062 1342.503906 9.433594 1341.4375 8.855469 1340.355469 C 8.277344 1339.273438 7.726562 1338.175781 7.199219 1337.066406 C 6.675781 1335.957031 6.179688 1334.835938 5.710938 1333.699219 C 5.238281 1332.566406 4.796875 1331.421875 4.382812 1330.265625 C 3.972656 1329.109375 3.585938 1327.945312 3.230469 1326.769531 C 2.875 1325.597656 2.546875 1324.414062 2.246094 1323.222656 C 1.949219 1322.03125 1.679688 1320.835938 1.441406 1319.632812 C 1.203125 1318.425781 0.992188 1317.21875 0.8125 1316.003906 C 0.632812 1314.789062 0.480469 1313.574219 0.359375 1312.351562 C 0.242188 1311.128906 0.152344 1309.90625 0.0898438 1308.679688 C 0.03125 1307.453125 0 1306.226562 0 1305 L 0 75 C 0 73.773438 0.03125 72.546875 0.0898438 71.320312 C 0.152344 70.09375 0.242188 68.871094 0.359375 67.648438 C 0.480469 66.425781 0.632812 65.210938 0.8125 63.996094 C 0.992188 62.78125 1.203125 61.570312 1.441406 60.367188 C 1.679688 59.164062 1.949219 57.96875 2.246094 56.777344 C 2.546875 55.585938 2.875 54.402344 3.230469 53.230469 C 3.585938 52.054688 3.972656 50.890625 4.382812 49.734375 C 4.796875 48.578125 5.238281 47.433594 5.710938 46.296875 C 6.179688 45.164062 6.675781 44.042969 7.199219 42.933594 C 7.726562 41.824219 8.277344 40.726562 8.855469 39.644531 C 9.433594 38.5625 10.039062 37.496094 10.671875 36.441406 C 11.300781 35.390625 11.957031 34.351562 12.640625 33.332031 C 13.320312 32.3125 14.027344 31.308594 14.757812 30.324219 C 15.492188 29.335938 16.246094 28.371094 17.023438 27.421875 C 17.804688 26.472656 18.605469 25.542969 19.429688 24.632812 C 20.253906 23.722656 21.097656 22.835938 21.96875 21.96875 C 22.835938 21.097656 23.722656 20.253906 24.632812 19.429688 C 25.542969 18.605469 26.472656 17.804688 27.421875 17.023438 C 28.371094 16.246094 29.335938 15.492188 30.324219 14.757812 C 31.308594 14.027344 32.3125 13.320312 33.332031 12.640625 C 34.351562 11.957031 35.390625 11.300781 36.441406 10.671875 C 37.496094 10.039062 38.5625 9.433594 39.644531 8.855469 C 40.726562 8.277344 41.824219 7.726562 42.933594 7.199219 C 44.042969 6.675781 45.164062 6.179688 46.296875 5.710938 C 47.433594 5.238281 48.578125 4.796875 49.734375 4.382812 C 50.890625 3.96875 52.054688 3.585938 53.230469 3.230469 C 54.402344 2.875 55.585938 2.546875 56.777344 2.246094 C 57.96875 1.949219 59.164062 1.679688 60.367188 1.441406 C 61.570312 1.203125 62.78125 0.992188 63.996094 0.8125 C 65.210938 0.632812 66.425781 0.480469 67.648438 0.359375 C 68.871094 0.242188 70.09375 0.152344 71.320312 0.0898438 C 72.546875 0.03125 73.773438 0 75 0 Z M 75 0 " fill-opacity="1" fill-rule="nonzero"/><path fill="#3e3b5b" d="M 112.5 60 L 787.5 60 C 789.21875 60 790.933594 60.085938 792.644531 60.253906 C 794.355469 60.421875 796.054688 60.671875 797.742188 61.007812 C 799.429688 61.34375 801.09375 61.761719 802.738281 62.261719 C 804.386719 62.757812 806.003906 63.339844 807.589844 63.996094 C 809.179688 64.652344 810.730469 65.386719 812.25 66.199219 C 813.765625 67.007812 815.238281 67.890625 816.667969 68.847656 C 818.097656 69.804688 819.476562 70.824219 820.804688 71.917969 C 822.132812 73.007812 823.40625 74.160156 824.621094 75.375 C 825.839844 76.59375 826.992188 77.863281 828.082031 79.195312 C 829.171875 80.523438 830.195312 81.902344 831.152344 83.332031 C 832.105469 84.761719 832.988281 86.234375 833.800781 87.75 C 834.609375 89.269531 835.34375 90.820312 836.003906 92.410156 C 836.660156 93.996094 837.238281 95.613281 837.738281 97.261719 C 838.238281 98.90625 838.65625 100.570312 838.992188 102.257812 C 839.328125 103.945312 839.578125 105.644531 839.746094 107.355469 C 839.914062 109.066406 840 110.78125 840 112.5 L 840 1267.5 C 840 1269.21875 839.914062 1270.933594 839.746094 1272.644531 C 839.578125 1274.355469 839.328125 1276.054688 838.992188 1277.742188 C 838.65625 1279.429688 838.238281 1281.09375 837.738281 1282.738281 C 837.238281 1284.386719 836.660156 1286.003906 836.003906 1287.589844 C 835.34375 1289.179688 834.609375 1290.730469 833.800781 1292.25 C 832.988281 1293.765625 832.105469 1295.238281 831.152344 1296.667969 C 830.195312 1298.097656 829.171875 1299.476562 828.082031 1300.804688 C 826.992188 1302.132812 825.839844 1303.40625 824.621094 1304.621094 C 823.40625 1305.839844 822.132812 1306.992188 820.804688 1308.082031 C 819.476562 1309.171875 818.097656 1310.195312 816.667969 1311.152344 C 815.238281 1312.105469 813.765625 1312.988281 812.25 1313.800781 C 810.730469 1314.609375 809.179688 1315.34375 807.589844 1316.003906 C 806.003906 1316.660156 804.386719 1317.238281 802.738281 1317.738281 C 801.09375 1318.238281 799.429688 1318.65625 797.742188 1318.992188 C 796.054688 1319.328125 794.355469 1319.578125 792.644531 1319.746094 C 790.933594 1319.914062 789.21875 1320 787.5 1320 L 112.5 1320 C 110.78125 1320 109.066406 1319.914062 107.355469 1319.746094 C 105.644531 1319.578125 103.945312 1319.328125 102.257812 1318.992188 C 100.570312 1318.65625 98.90625 1318.238281 97.261719 1317.738281 C 95.613281 1317.238281 93.996094 1316.660156 92.410156 1316.003906 C 90.820312 1315.34375 89.269531 1314.609375 87.75 1313.800781 C 86.234375 1312.988281 84.761719 1312.105469 83.332031 1311.152344 C 81.902344 1310.195312 80.523438 1309.171875 79.195312 1308.082031 C 77.863281 1306.992188 76.59375 1305.839844 75.375 1304.621094 C 74.160156 1303.40625 73.007812 1302.132812 71.917969 1300.804688 C 70.824219 1299.476562 69.804688 1298.097656 68.847656 1296.667969 C 67.894531 1295.238281 67.007812 1293.765625 66.199219 1292.25 C 65.386719 1290.730469 64.65625 1289.179688 63.996094 1287.589844 C 63.339844 1286.003906 62.757812 1284.386719 62.261719 1282.738281 C 61.761719 1281.09375 61.34375 1279.429688 61.007812 1277.742188 C 60.671875 1276.054688 60.421875 1274.355469 60.253906 1272.644531 C 60.085938 1270.933594 60 1269.21875 60 1267.5 L 60 112.5 C 60 110.78125 60.085938 109.066406 60.253906 107.355469 C 60.421875 105.644531 60.671875 103.945312 61.007812 102.257812 C 61.34375 100.570312 61.761719 98.90625 62.261719 97.261719 C 62.757812 95.613281 63.339844 93.996094 63.996094 92.410156 C 64.65625 90.820312 65.386719 89.269531 66.199219 87.75 C 67.007812 86.234375 67.894531 84.761719 68.847656 83.332031 C 69.804688 81.902344 70.824219 80.523438 71.917969 79.195312 C 73.007812 77.863281 74.160156 76.59375 75.375 75.375 C 76.59375 74.160156 77.863281 73.007812 79.195312 71.917969 C 80.523438 70.824219 81.902344 69.804688 83.332031 68.847656 C 84.761719 67.890625 86.234375 67.007812 87.75 66.199219 C 89.269531 65.386719 90.820312 64.652344 92.410156 63.996094 C 93.996094 63.339844 95.613281 62.757812 97.261719 62.261719 C 98.90625 61.761719 100.570312 61.34375 102.257812 61.007812 C 103.945312 60.671875 105.644531 60.421875 107.355469 60.253906 C 109.066406 60.085938 110.78125 60 112.5 60 Z M 112.5 60 " fill-opacity="1" fill-rule="nonzero"/><path stroke-linecap="butt" transform="matrix(7.499999, 0, 0, 7.499999, 0.0000205435, -0.00002)" fill="none" stroke-linejoin="miter" d="M 20.999999 17.000004 L 99.000006 17.000004 C 99.131256 17.000004 99.261464 17.006254 99.392193 17.019275 C 99.522402 17.032296 99.652089 17.051046 99.780214 17.077087 C 99.90886 17.102608 100.035943 17.134379 100.160944 17.1724 C 100.286464 17.210421 100.409902 17.254171 100.530735 17.304692 C 100.651569 17.354692 100.769798 17.410421 100.885423 17.4724 C 101.001048 17.533858 101.113548 17.601567 101.222402 17.673963 C 101.331256 17.746879 101.436464 17.825004 101.537506 17.907817 C 101.639069 17.99115 101.735944 18.079171 101.828652 18.171358 C 101.920839 18.264067 102.00886 18.360942 102.092194 18.462504 C 102.175006 18.563546 102.253131 18.668754 102.326048 18.777608 C 102.398444 18.886463 102.466152 18.998963 102.52761 19.114588 C 102.58959 19.229692 102.645319 19.348442 102.695319 19.469275 C 102.74584 19.590109 102.78959 19.713546 102.82761 19.839067 C 102.865631 19.964067 102.897402 20.09115 102.922923 20.219796 C 102.948444 20.347921 102.967715 20.477609 102.980735 20.607817 C 102.993756 20.738546 103.000006 20.868754 103.000006 21.000005 L 103.000006 163.000017 C 103.000006 163.131267 102.993756 163.261475 102.980735 163.392204 C 102.967715 163.522413 102.948444 163.6521 102.922923 163.780225 C 102.897402 163.908871 102.865631 164.035954 102.82761 164.160955 C 102.78959 164.286475 102.74584 164.409913 102.695319 164.530746 C 102.645319 164.65158 102.58959 164.769809 102.52761 164.885434 C 102.466152 165.001059 102.398444 165.113559 102.326048 165.222413 C 102.253131 165.331267 102.175006 165.436475 102.092194 165.537517 C 102.00886 165.63908 101.920839 165.735955 101.828652 165.828663 C 101.735944 165.92085 101.639069 166.008871 101.537506 166.092205 C 101.436464 166.175017 101.331256 166.253142 101.222402 166.326059 C 101.113548 166.398455 101.001048 166.466163 100.885423 166.527621 C 100.769798 166.589601 100.651569 166.64533 100.530735 166.69533 C 100.409902 166.745851 100.286464 166.789601 100.160944 166.827621 C 100.035943 166.865642 99.90886 166.897413 99.780214 166.922934 C 99.652089 166.948455 99.522402 166.967726 99.392193 166.980746 C 99.261464 166.993767 99.131256 167.000017 99.000006 167.000017 L 20.999999 167.000017 C 20.868749 167.000017 20.738541 166.993767 20.607812 166.980746 C 20.477603 166.967726 20.347916 166.948455 20.219791 166.922934 C 20.091145 166.897413 19.964062 166.865642 19.839061 166.827621 C 19.713541 166.789601 19.590103 166.745851 19.46927 166.69533 C 19.348436 166.64533 19.229686 166.589601 19.114582 166.527621 C 18.998957 166.466163 18.886457 166.398455 18.777603 166.326059 C 18.668749 166.253142 18.563541 166.175017 18.462499 166.092205 C 18.360936 166.008871 18.264061 165.92085 18.171353 165.828663 C 18.079166 165.735955 17.991145 165.63908 17.907811 165.537517 C 17.824999 165.436475 17.746874 165.331267 17.673957 165.222413 C 17.601561 165.113559 17.533853 165.001059 17.472395 164.885434 C 17.410415 164.769809 17.354686 164.65158 17.304686 164.530746 C 17.254165 164.409913 17.210415 164.286475 17.172395 164.160955 C 17.134374 164.035954 17.102603 163.908871 17.077082 163.780225 C 17.05104 163.6521 17.03229 163.522413 17.01927 163.392204 C 17.006249 163.261475 16.999999 163.131267 16.999999 163.000017 L 16.999999 21.000005 C 16.999999 20.868754 17.006249 20.738546 17.01927 20.607817 C 17.03229 20.477609 17.05104 20.347921 17.077082 20.219796 C 17.102603 20.09115 17.134374 19.964067 17.172395 19.839067 C 17.210415 19.713546 17.254165 19.590109 17.304686 19.469275 C 17.354686 19.348442 17.410415 19.229692 17.472395 19.114588 C 17.533853 18.998963 17.601561 18.886463 17.673957 18.777608 C 17.746874 18.668754 17.824999 18.563546 17.907811 18.462504 C 17.991145 18.360942 18.079166 18.264067 18.171353 18.171358 C 18.264061 18.079171 18.360936 17.99115 18.462499 17.907817 C 18.563541 17.825004 18.668749 17.746879 18.777603 17.673963 C 18.886457 17.601567 18.998957 17.533858 19.114582 17.4724 C 19.229686 17.410421 19.348436 17.354692 19.46927 17.304692 C 19.590103 17.254171 19.713541 17.210421 19.839061 17.1724 C 19.964062 17.134379 20.091145 17.102608 20.219791 17.077087 C 20.347916 17.051046 20.477603 17.032296 20.607812 17.019275 C 20.738541 17.006254 20.868749 17.000004 20.999999 17.000004 Z M 20.999999 17.000004 " stroke="#d7c0ef" stroke-width="2" stroke-opacity="1" stroke-miterlimit="4"/><g mask="url(#923cd822b8)"><g transform="matrix(1, 0, 0, 1, 127, 337)"><g clip-path="url(#b4deffbc99)"><g clip-path="url(#4e6df780d4)"><path fill="#3e3b5b" d="M 323 0.5 L 413 233 L 645.5 323 L 413 413 L 323 645.5 L 233 413 L 0.5 323 L 233 233 Z M 323 0.5 " fill-opacity="1" fill-rule="nonzero"/></g></g></g></g><path fill="#3e3b5b" d="M 570 690 C 570 691.964844 569.953125 693.925781 569.855469 695.886719 C 569.757812 697.847656 569.613281 699.808594 569.421875 701.761719 C 569.230469 703.714844 568.988281 705.664062 568.699219 707.609375 C 568.414062 709.550781 568.078125 711.484375 567.695312 713.410156 C 567.3125 715.335938 566.878906 717.253906 566.402344 719.15625 C 565.925781 721.0625 565.402344 722.953125 564.832031 724.835938 C 564.261719 726.714844 563.648438 728.578125 562.984375 730.425781 C 562.324219 732.277344 561.617188 734.105469 560.867188 735.921875 C 560.113281 737.734375 559.316406 739.53125 558.480469 741.304688 C 557.640625 743.082031 556.757812 744.835938 555.832031 746.566406 C 554.90625 748.300781 553.9375 750.007812 552.925781 751.691406 C 551.917969 753.375 550.867188 755.035156 549.777344 756.667969 C 548.683594 758.300781 547.554688 759.90625 546.386719 761.484375 C 545.214844 763.0625 544.007812 764.609375 542.761719 766.128906 C 541.515625 767.644531 540.234375 769.132812 538.914062 770.585938 C 537.59375 772.042969 536.242188 773.464844 534.851562 774.851562 C 533.464844 776.242188 532.042969 777.59375 530.585938 778.914062 C 529.132812 780.234375 527.644531 781.515625 526.128906 782.761719 C 524.609375 784.007812 523.0625 785.214844 521.484375 786.382812 C 519.90625 787.554688 518.300781 788.683594 516.667969 789.777344 C 515.035156 790.867188 513.375 791.917969 511.691406 792.925781 C 510.007812 793.9375 508.300781 794.90625 506.566406 795.832031 C 504.835938 796.757812 503.082031 797.640625 501.304688 798.476562 C 499.53125 799.316406 497.734375 800.113281 495.921875 800.867188 C 494.109375 801.617188 492.277344 802.324219 490.425781 802.984375 C 488.578125 803.648438 486.714844 804.261719 484.835938 804.832031 C 482.953125 805.402344 481.0625 805.925781 479.15625 806.402344 C 477.253906 806.878906 475.335938 807.3125 473.410156 807.695312 C 471.484375 808.078125 469.550781 808.414062 467.609375 808.699219 C 465.664062 808.988281 463.714844 809.230469 461.761719 809.421875 C 459.808594 809.613281 457.847656 809.757812 455.886719 809.855469 C 453.925781 809.953125 451.964844 810 450 810 C 448.035156 810 446.074219 809.953125 444.113281 809.855469 C 442.148438 809.757812 440.191406 809.613281 438.238281 809.421875 C 436.285156 809.230469 434.335938 808.988281 432.390625 808.699219 C 430.449219 808.414062 428.515625 808.078125 426.589844 807.695312 C 424.664062 807.3125 422.746094 806.878906 420.84375 806.402344 C 418.9375 805.925781 417.046875 805.402344 415.164062 804.832031 C 413.285156 804.261719 411.421875 803.648438 409.574219 802.984375 C 407.722656 802.324219 405.890625 801.617188 404.078125 800.867188 C 402.261719 800.113281 400.46875 799.316406 398.691406 798.476562 C 396.917969 797.640625 395.164062 796.757812 393.433594 795.832031 C 391.699219 794.90625 389.992188 793.9375 388.308594 792.925781 C 386.625 791.917969 384.964844 790.867188 383.332031 789.777344 C 381.699219 788.683594 380.09375 787.554688 378.515625 786.382812 C 376.9375 785.214844 375.390625 784.007812 373.871094 782.761719 C 372.355469 781.515625 370.867188 780.234375 369.414062 778.914062 C 367.957031 777.59375 366.535156 776.242188 365.148438 774.851562 C 363.757812 773.464844 362.40625 772.042969 361.085938 770.585938 C 359.765625 769.132812 358.484375 767.644531 357.238281 766.128906 C 355.992188 764.609375 354.785156 763.0625 353.613281 761.484375 C 352.445312 759.90625 351.316406 758.300781 350.222656 756.667969 C 349.132812 755.035156 348.082031 753.375 347.074219 751.691406 C 346.0625 750.007812 345.09375 748.300781 344.167969 746.566406 C 343.242188 744.835938 342.359375 743.082031 341.519531 741.304688 C 340.679688 739.53125 339.886719 737.734375 339.132812 735.921875 C 338.382812 734.105469 337.675781 732.277344 337.015625 730.425781 C 336.351562 728.578125 335.738281 726.714844 335.167969 724.832031 C 334.597656 722.953125 334.074219 721.0625 333.597656 719.15625 C 333.117188 717.253906 332.6875 715.335938 332.304688 713.410156 C 331.921875 711.484375 331.585938 709.550781 331.296875 707.609375 C 331.011719 705.664062 330.769531 703.714844 330.578125 701.761719 C 330.386719 699.808594 330.242188 697.847656 330.144531 695.886719 C 330.046875 693.925781 330 691.964844 330 690 C 330 688.035156 330.046875 686.074219 330.144531 684.113281 C 330.242188 682.148438 330.386719 680.191406 330.578125 678.238281 C 330.769531 676.285156 331.011719 674.335938 331.296875 672.390625 C 331.585938 670.449219 331.921875 668.515625 332.304688 666.589844 C 332.6875 664.664062 333.117188 662.746094 333.597656 660.84375 C 334.074219 658.9375 334.597656 657.046875 335.167969 655.164062 C 335.738281 653.285156 336.351562 651.421875 337.015625 649.574219 C 337.675781 647.722656 338.382812 645.890625 339.132812 644.078125 C 339.886719 642.261719 340.679688 640.46875 341.519531 638.691406 C 342.359375 636.917969 343.242188 635.164062 344.167969 633.433594 C 345.09375 631.699219 346.0625 629.992188 347.074219 628.308594 C 348.082031 626.625 349.132812 624.964844 350.222656 623.332031 C 351.316406 621.699219 352.445312 620.09375 353.613281 618.515625 C 354.785156 616.9375 355.992188 615.390625 357.238281 613.871094 C 358.484375 612.355469 359.765625 610.867188 361.085938 609.414062 C 362.40625 607.957031 363.757812 606.535156 365.148438 605.148438 C 366.535156 603.757812 367.957031 602.40625 369.414062 601.085938 C 370.867188 599.765625 372.355469 598.484375 373.871094 597.238281 C 375.390625 595.992188 376.9375 594.785156 378.515625 593.613281 C 380.09375 592.445312 381.699219 591.316406 383.332031 590.222656 C 384.964844 589.132812 386.625 588.082031 388.308594 587.074219 C 389.992188 586.0625 391.699219 585.09375 393.433594 584.167969 C 395.164062 583.242188 396.917969 582.359375 398.691406 581.519531 C 400.46875 580.679688 402.261719 579.886719 404.078125 579.132812 C 405.890625 578.382812 407.722656 577.675781 409.574219 577.015625 C 411.421875 576.351562 413.285156 575.738281 415.164062 575.167969 C 417.046875 574.597656 418.9375 574.074219 420.84375 573.597656 C 422.746094 573.117188 424.664062 572.6875 426.589844 572.304688 C 428.515625 571.921875 430.449219 571.585938 432.390625 571.296875 C 434.335938 571.011719 436.285156 570.769531 438.238281 570.578125 C 440.191406 570.386719 442.148438 570.242188 444.113281 570.144531 C 446.074219 570.046875 448.035156 570 450 570 C 451.964844 570 453.925781 570.046875 455.886719 570.144531 C 457.847656 570.242188 459.808594 570.386719 461.761719 570.578125 C 463.714844 570.769531 465.664062 571.011719 467.609375 571.296875 C 469.550781 571.585938 471.484375 571.921875 473.410156 572.304688 C 475.335938 572.6875 477.253906 573.117188 479.15625 573.597656 C 481.0625 574.074219 482.953125 574.597656 484.835938 575.167969 C 486.714844 575.738281 488.578125 576.351562 490.425781 577.015625 C 492.277344 577.675781 494.109375 578.382812 495.921875 579.132812 C 497.734375 579.886719 499.53125 580.679688 501.304688 581.519531 C 503.082031 582.359375 504.835938 583.242188 506.566406 584.167969 C 508.300781 585.09375 510.007812 586.0625 511.691406 587.074219 C 513.375 588.082031 515.035156 589.132812 516.667969 590.222656 C 518.300781 591.316406 519.90625 592.445312 521.484375 593.613281 C 523.0625 594.785156 524.609375 595.992188 526.128906 597.238281 C 527.644531 598.484375 529.132812 599.765625 530.585938 601.085938 C 532.042969 602.40625 533.464844 603.757812 534.851562 605.148438 C 536.242188 606.535156 537.59375 607.957031 538.914062 609.414062 C 540.234375 610.867188 541.515625 612.355469 542.761719 613.871094 C 544.007812 615.390625 545.214844 616.9375 546.386719 618.515625 C 547.554688 620.09375 548.683594 621.699219 549.777344 623.332031 C 550.867188 624.964844 551.917969 626.625 552.925781 628.308594 C 553.9375 629.992188 554.90625 631.699219 555.832031 633.433594 C 556.757812 635.164062 557.640625 636.917969 558.480469 638.691406 C 559.316406 640.46875 560.113281 642.261719 560.867188 644.078125 C 561.617188 645.890625 562.324219 647.722656 562.984375 649.574219 C 563.648438 651.421875 564.261719 653.285156 564.832031 655.164062 C 565.402344 657.046875 565.925781 658.9375 566.402344 660.84375 C 566.878906 662.746094 567.3125 664.664062 567.695312 666.589844 C 568.078125 668.515625 568.414062 670.449219 568.699219 672.390625 C 568.988281 674.335938 569.230469 676.285156 569.421875 678.238281 C 569.613281 680.191406 569.757812 682.148438 569.855469 684.113281 C 569.953125 686.074219 570 688.035156 570 690 Z M 570 690 " fill-opacity="1" fill-rule="nonzero"/><path fill="#3e3b5b" d="M 495 690 C 495 691.472656 494.929688 692.945312 494.785156 694.410156 C 494.640625 695.878906 494.421875 697.332031 494.136719 698.777344 C 493.847656 700.222656 493.488281 701.652344 493.0625 703.0625 C 492.632812 704.472656 492.136719 705.859375 491.574219 707.21875 C 491.011719 708.582031 490.382812 709.914062 489.6875 711.210938 C 488.992188 712.511719 488.234375 713.773438 487.417969 715 C 486.597656 716.226562 485.71875 717.410156 484.785156 718.546875 C 483.851562 719.6875 482.863281 720.777344 481.820312 721.820312 C 480.777344 722.863281 479.6875 723.851562 478.546875 724.785156 C 477.410156 725.71875 476.226562 726.597656 475 727.414062 C 473.773438 728.234375 472.511719 728.992188 471.210938 729.6875 C 469.914062 730.382812 468.582031 731.011719 467.21875 731.574219 C 465.859375 732.136719 464.472656 732.632812 463.0625 733.0625 C 461.652344 733.488281 460.222656 733.847656 458.777344 734.136719 C 457.332031 734.421875 455.878906 734.640625 454.410156 734.785156 C 452.945312 734.925781 451.472656 735 450 735 C 448.527344 735 447.054688 734.925781 445.589844 734.785156 C 444.121094 734.640625 442.667969 734.421875 441.222656 734.136719 C 439.777344 733.847656 438.347656 733.488281 436.9375 733.0625 C 435.527344 732.632812 434.140625 732.136719 432.777344 731.574219 C 431.417969 731.011719 430.085938 730.382812 428.789062 729.6875 C 427.488281 728.992188 426.226562 728.234375 425 727.414062 C 423.773438 726.597656 422.589844 725.71875 421.453125 724.785156 C 420.3125 723.851562 419.222656 722.863281 418.179688 721.820312 C 417.136719 720.777344 416.148438 719.6875 415.214844 718.546875 C 414.28125 717.410156 413.402344 716.226562 412.582031 715 C 411.765625 713.773438 411.007812 712.511719 410.3125 711.210938 C 409.617188 709.914062 408.988281 708.582031 408.425781 707.21875 C 407.863281 705.859375 407.367188 704.472656 406.9375 703.0625 C 406.511719 701.652344 406.152344 700.222656 405.863281 698.777344 C 405.578125 697.332031 405.359375 695.878906 405.214844 694.410156 C 405.070312 692.945312 405 691.472656 405 690 C 405 688.527344 405.070312 687.054688 405.214844 685.589844 C 405.359375 684.121094 405.578125 682.667969 405.863281 681.222656 C 406.152344 679.773438 406.511719 678.347656 406.9375 676.9375 C 407.367188 675.527344 407.863281 674.140625 408.425781 672.777344 C 408.988281 671.417969 409.617188 670.085938 410.3125 668.785156 C 411.007812 667.488281 411.765625 666.226562 412.582031 665 C 413.402344 663.773438 414.28125 662.589844 415.214844 661.453125 C 416.148438 660.3125 417.136719 659.222656 418.179688 658.179688 C 419.222656 657.136719 420.3125 656.148438 421.453125 655.214844 C 422.589844 654.28125 423.773438 653.402344 425 652.582031 C 426.226562 651.765625 427.488281 651.007812 428.789062 650.3125 C 430.085938 649.617188 431.417969 648.988281 432.777344 648.425781 C 434.140625 647.863281 435.527344 647.367188 436.9375 646.9375 C 438.347656 646.511719 439.777344 646.152344 441.222656 645.863281 C 442.667969 645.578125 444.121094 645.359375 445.589844 645.214844 C 447.054688 645.070312 448.527344 645 450 645 C 451.472656 645 452.945312 645.070312 454.410156 645.214844 C 455.878906 645.359375 457.332031 645.578125 458.777344 645.863281 C 460.222656 646.152344 461.652344 646.511719 463.0625 646.9375 C 464.472656 647.367188 465.859375 647.863281 467.21875 648.425781 C 468.582031 648.988281 469.914062 649.617188 471.210938 650.3125 C 472.511719 651.007812 473.773438 651.765625 475 652.582031 C 476.226562 653.402344 477.410156 654.28125 478.546875 655.214844 C 479.6875 656.148438 480.777344 657.136719 481.820312 658.179688 C 482.863281 659.222656 483.851562 660.3125 484.785156 661.453125 C 485.71875 662.589844 486.597656 663.773438 487.417969 665 C 488.234375 666.226562 488.992188 667.488281 489.6875 668.785156 C 490.382812 670.085938 491.011719 671.417969 491.574219 672.777344 C 492.136719 674.140625 492.632812 675.527344 493.0625 676.9375 C 493.488281 678.347656 493.847656 679.773438 494.136719 681.222656 C 494.421875 682.667969 494.640625 684.121094 494.785156 685.589844 C 494.929688 687.054688 495 688.527344 495 690 Z M 495 690 " fill-opacity="1" fill-rule="nonzero"/><g clip-path="url(#5082673346)"><g transform="matrix(1, 0, 0, 1, 54, 46)"><g clip-path="url(#0bea24ee40)"><g clip-path="url(#33304c6f7d)"><path fill="#3e3b5b" d="M 0.785156 0.261719 L 788.292969 0.261719 L 788.292969 1264.582031 L 0.785156 1264.582031 Z M 0.785156 0.261719 " fill-opacity="1" fill-rule="nonzero"/></g></g></g></g><g clip-path="url(#2d2e22f11a)"><g clip-path="url(#505a97a7c0)"><g transform="matrix(1, 0, 0, 1, 39, 57)"><g clip-path="url(#dae496ea90)"><g clip-path="url(#5516ce25f8)"><g clip-path="url(#15b775f7f9)"><path fill="#3e3b5b" d="M 0.347656 0.957031 L 818.726562 0.957031 L 818.726562 1263.691406 L 0.347656 1263.691406 Z M 0.347656 0.957031 " fill-opacity="1" fill-rule="nonzero"/></g></g></g></g></g></g><g clip-path="url(#82cc6e42b3)"><g clip-path="url(#231462102d)"><path stroke-linecap="butt" transform="matrix(0.75, 0, 0, 0.75, 39.347731, 57.956752)" fill="none" stroke-linejoin="miter" d="M 545.58849 0.000372681 C 690.281211 0.000372681 829.057265 57.479544 931.369774 159.797262 C 1033.687491 262.114979 1091.171871 400.885824 1091.171871 545.583754 L 1091.171871 1139.854639 C 1091.171871 1284.552568 1033.687491 1423.323414 931.369774 1525.641131 C 829.057265 1627.958848 690.281211 1685.43802 545.58849 1685.43802 C 400.890561 1685.43802 262.114507 1627.958848 159.801998 1525.641131 C 57.484281 1423.323414 -0.0000993836 1284.552568 -0.0000993836 1139.854639 L -0.0000993836 545.583754 C -0.0000993836 400.885824 57.484281 262.114979 159.801998 159.797262 C 262.114507 57.479544 400.890561 0.000372681 545.58849 0.000372681 Z M 545.58849 0.000372681 " stroke="#efede6" stroke-width="20" stroke-opacity="1" stroke-miterlimit="4"/></g></g><g clip-path="url(#def50dc452)"><path fill="#efede6" d="M 435.742188 388.753906 C 431.503906 391.835938 427.84375 392.992188 424.570312 392.992188 C 418.023438 392.992188 413.785156 388.753906 413.59375 388.5625 C 412.820312 387.792969 412.820312 386.636719 413.59375 385.867188 C 414.363281 385.09375 415.519531 385.09375 416.289062 385.867188 C 416.671875 386.25 423.609375 392.992188 433.429688 385.671875 C 434.203125 385.09375 435.550781 385.289062 436.128906 386.058594 C 436.707031 386.828125 436.707031 388.175781 435.742188 388.753906 Z M 438.4375 374.695312 C 438.824219 375.078125 439.402344 375.273438 439.789062 375.273438 C 440.171875 375.273438 440.75 375.078125 441.136719 374.695312 C 441.90625 373.921875 441.90625 372.769531 441.136719 371.996094 C 430.15625 360.632812 411.28125 367.953125 410.511719 368.339844 C 409.546875 368.722656 408.96875 369.878906 409.355469 370.84375 C 409.738281 371.804688 410.894531 372.382812 411.859375 371.996094 C 412.242188 371.804688 429.386719 365.257812 438.4375 374.695312 Z M 434.203125 621.4375 C 434.972656 620.664062 434.972656 619.507812 434.203125 618.738281 C 433.429688 617.96875 432.277344 617.96875 431.503906 618.738281 C 428.039062 622.011719 397.414062 652.0625 397.414062 665.351562 C 397.414062 666.507812 398.375 667.277344 399.339844 667.277344 C 400.492188 667.277344 401.265625 666.316406 401.265625 665.351562 C 401.265625 655.527344 425.148438 630.296875 434.203125 621.4375 Z M 470.992188 728.144531 C 470.027344 727.761719 468.871094 728.144531 468.488281 729.109375 C 468.292969 729.300781 457.316406 752.414062 438.4375 764.164062 C 437.476562 764.742188 437.285156 765.898438 437.863281 766.859375 C 438.246094 767.4375 438.824219 767.824219 439.402344 767.824219 C 439.789062 767.824219 440.171875 767.824219 440.367188 767.4375 C 460.203125 755.113281 471.375 731.804688 471.761719 730.839844 C 472.339844 729.6875 471.953125 728.53125 470.992188 728.144531 Z M 470.992188 750.875 C 470.027344 750.488281 468.871094 750.679688 468.488281 751.644531 C 468.292969 752.03125 444.21875 798.835938 409.933594 807.695312 C 408.96875 807.886719 408.199219 809.042969 408.582031 810.007812 C 408.777344 810.96875 409.546875 811.546875 410.511719 811.546875 C 410.703125 811.546875 410.894531 811.546875 410.894531 811.546875 C 429.773438 806.734375 445.375 791.128906 455.003906 778.996094 C 465.597656 765.898438 471.570312 754.148438 471.761719 753.570312 C 472.339844 752.605469 471.953125 751.453125 470.992188 750.875 Z M 502.964844 740.664062 C 503.542969 740.664062 504.121094 740.28125 504.507812 739.894531 C 511.054688 730.265625 513.558594 721.019531 513.753906 720.632812 C 513.945312 719.671875 513.367188 718.515625 512.402344 718.320312 C 511.441406 718.128906 510.285156 718.707031 510.09375 719.671875 C 510.09375 719.671875 507.589844 728.722656 501.425781 737.777344 C 500.847656 738.738281 501.039062 739.894531 502.003906 740.472656 C 502.195312 740.664062 502.582031 740.664062 502.964844 740.664062 Z M 523.574219 990.875 C 523.960938 989.910156 523.382812 988.753906 522.421875 988.371094 C 521.457031 987.984375 520.300781 988.5625 519.917969 989.527344 C 519.917969 989.71875 510.671875 1013.988281 464.636719 1029.203125 C 463.671875 1029.589844 463.09375 1030.554688 463.480469 1031.707031 C 463.671875 1032.480469 464.441406 1033.058594 465.214844 1033.058594 C 465.40625 1033.058594 465.597656 1033.058594 465.789062 1032.863281 C 513.753906 1017.070312 523.191406 992.03125 523.574219 990.875 Z M 451.34375 980.472656 C 450.382812 980.472656 427.84375 981.242188 386.242188 1040.570312 C 345.597656 1098.355469 292.820312 1107.597656 292.242188 1107.597656 C 291.28125 1107.792969 290.511719 1108.753906 290.703125 1109.71875 C 290.894531 1110.679688 291.664062 1111.257812 292.628906 1111.257812 C 292.820312 1111.257812 292.820312 1111.257812 293.015625 1111.257812 C 293.59375 1111.257812 306.882812 1108.949219 325.757812 1099.316406 C 342.902344 1090.457031 367.941406 1073.507812 389.707031 1042.496094 C 429.578125 985.480469 451.34375 984.132812 451.730469 984.132812 C 452.691406 984.132812 453.65625 983.167969 453.65625 982.207031 C 453.269531 981.242188 452.308594 980.472656 451.34375 980.472656 Z M 366.207031 1086.027344 C 349.644531 1102.011719 315.359375 1113.570312 314.972656 1113.761719 C 314.007812 1114.148438 313.429688 1115.109375 313.816406 1116.265625 C 314.007812 1117.039062 314.78125 1117.613281 315.550781 1117.613281 C 315.742188 1117.613281 315.933594 1117.613281 316.128906 1117.421875 C 317.476562 1117.039062 351.570312 1105.480469 368.710938 1088.914062 C 369.484375 1088.144531 369.484375 1086.988281 368.710938 1086.21875 C 367.941406 1085.449219 366.980469 1085.253906 366.207031 1086.027344 Z M 742.964844 1067.921875 C 742.582031 1071.003906 740.078125 1073.3125 736.996094 1073.507812 L 475.230469 1086.605469 C 471.375 1089.492188 467.910156 1092.960938 464.828125 1097.003906 C 461.359375 1101.628906 458.472656 1106.636719 456.546875 1111.835938 C 452.113281 1123.007812 441.328125 1131.867188 423.992188 1138.417969 C 411.085938 1143.234375 397.21875 1145.738281 382.582031 1145.738281 L 255.453125 1145.738281 C 244.859375 1145.160156 220.207031 1143.234375 218.855469 1135.722656 C 218.085938 1131.675781 223.285156 1128.785156 227.332031 1126.859375 C 232.339844 1124.550781 237.734375 1123.007812 243.703125 1122.238281 L 262.582031 1119.734375 C 267.011719 1118.964844 273.753906 1116.652344 274.136719 1113.957031 C 274.332031 1113.183594 273.945312 1110.679688 265.085938 1106.25 C 259.304688 1103.363281 256.609375 1100.085938 256.800781 1096.425781 C 256.996094 1091.417969 262.773438 1086.605469 274.714844 1081.980469 C 292.4375 1074.855469 306.496094 1060.984375 313.238281 1043.652344 C 313.625 1042.878906 313.816406 1041.917969 314.203125 1040.953125 C 314.78125 1039.414062 315.359375 1037.871094 315.933594 1036.136719 C 316.128906 1035.367188 316.511719 1034.597656 316.707031 1033.632812 L 289.738281 1060.984375 C 278.953125 1071.964844 263.160156 1076.011719 248.328125 1071.964844 C 227.332031 1066.378906 197.285156 1076.011719 181.296875 1082.367188 C 174.554688 1085.0625 167.234375 1086.410156 160.109375 1086.410156 C 158.183594 1086.410156 156.257812 1086.21875 154.332031 1086.027344 C 146.242188 1085.253906 139.113281 1083.523438 133.335938 1081.019531 C 131.023438 1080.054688 129.675781 1077.9375 129.484375 1075.433594 C 129.484375 1072.929688 130.832031 1070.808594 132.949219 1069.652344 C 166.464844 1053.28125 198.824219 1034.984375 229.644531 1015.144531 C 253.914062 999.542969 276.257812 980.664062 296.289062 959.476562 L 343.671875 909.011719 C 344.441406 891.097656 354.074219 871.835938 379.304688 838.128906 C 397.988281 813.28125 398.183594 791.324219 397.414062 782.847656 C 390.863281 789.011719 384.890625 794.019531 379.5 798.257812 C 372.371094 803.84375 363.703125 806.539062 355.035156 806.539062 C 345.789062 806.539062 336.351562 803.265625 329.035156 796.910156 C 317.863281 787.277344 312.46875 772.832031 314.585938 758.386719 L 322.675781 699.636719 C 314.78125 695.976562 274.714844 675.945312 265.855469 635.6875 C 258.152344 600.441406 275.679688 559.796875 318.246094 515.113281 C 339.820312 492.191406 382.582031 462.527344 408.390625 449.429688 L 407.621094 447.503906 C 407.621094 447.503906 407.621094 447.3125 407.621094 447.3125 C 406.464844 447.117188 405.308594 446.734375 404.539062 445.769531 C 402.421875 443.457031 403.382812 439.605469 404.347656 436.910156 C 402.035156 436.523438 398.953125 435.367188 398.183594 432.671875 C 397.21875 429.398438 400.300781 425.738281 402.035156 424.195312 L 400.492188 417.648438 C 400.300781 416.492188 399.53125 415.722656 398.375 415.144531 C 398.375 415.144531 398.183594 415.144531 398.183594 414.949219 L 395.292969 413.410156 C 391.441406 411.097656 389.898438 406.476562 391.632812 402.238281 C 391.632812 402.238281 391.632812 402.046875 391.828125 402.046875 L 396.835938 393.183594 C 383.160156 391.453125 374.875 386.828125 371.988281 378.933594 C 365.4375 360.441406 394.136719 331.742188 397.605469 328.273438 C 398.953125 324.613281 408.582031 302.078125 441.328125 298.03125 C 445.953125 297.457031 450.382812 297.839844 454.8125 298.804688 C 458.085938 296.878906 474.457031 288.402344 490.445312 295.335938 C 491.601562 295.722656 492.566406 296.492188 493.71875 297.261719 C 507.589844 299.574219 518.375 304.390625 526.851562 310.554688 C 527.042969 310.746094 527.429688 310.746094 527.621094 311.132812 C 554.972656 331.933594 556.320312 367.566406 556.320312 375.464844 C 558.824219 375.851562 561.328125 376.429688 563.832031 377.003906 C 564.21875 377.003906 564.410156 377.003906 564.796875 377.199219 C 564.796875 377.199219 564.796875 377.199219 564.988281 377.199219 C 613.71875 387.40625 666.496094 408.210938 695.390625 450.585938 C 717.539062 482.753906 720.621094 513.570312 718.503906 535.914062 C 718.503906 535.914062 718.503906 536.105469 718.503906 536.105469 C 718.503906 536.492188 718.503906 536.878906 718.3125 537.070312 C 716.191406 556.523438 710.222656 569.238281 709.644531 570.777344 C 709.066406 572.320312 705.019531 583.492188 692.886719 594.46875 C 681.90625 604.292969 662.257812 615.65625 629.515625 615.65625 C 627.972656 615.65625 626.238281 615.65625 624.507812 615.464844 C 630.863281 647.632812 639.144531 696.75 647.234375 768.980469 C 648.199219 777.261719 647.621094 785.351562 645.886719 792.863281 C 642.996094 804.421875 637.988281 811.742188 630.863281 814.4375 C 628.9375 815.207031 626.816406 815.59375 624.507812 815.59375 C 618.34375 815.59375 611.023438 812.703125 602.933594 806.925781 C 602.933594 806.925781 602.355469 806.539062 601.777344 805.960938 C 607.941406 822.527344 623.734375 865.289062 623.734375 873.570312 C 623.734375 874.148438 623.351562 874.726562 622.964844 875.113281 L 639.722656 901.113281 C 640.109375 901.886719 650.125 918.449219 651.472656 933.28125 C 652.242188 940.984375 654.363281 947.726562 657.636719 953.3125 C 658.023438 953.890625 658.214844 954.46875 658.601562 954.855469 C 662.644531 961.019531 665.339844 967.375 666.496094 973.921875 C 669.386719 989.332031 669.773438 1009.558594 656.097656 1018.609375 C 657.058594 1019.1875 657.828125 1019.957031 658.601562 1020.730469 L 673.816406 1037.488281 C 677.476562 1041.53125 682.097656 1044.421875 687.492188 1045.960938 L 738.921875 1060.601562 C 741.425781 1061.949219 743.351562 1064.839844 742.964844 1067.921875 Z M 642.804688 769.941406 C 628.550781 643.585938 614.296875 588.5 609.484375 570.390625 C 606.785156 560.183594 599.464844 551.515625 589.644531 547.277344 L 530.316406 522.046875 C 528.777344 530.328125 522.613281 557.292969 503.929688 571.933594 L 564.410156 621.4375 C 564.988281 621.820312 566.914062 622.976562 569.417969 625.289062 L 566.914062 610.070312 C 566.722656 609.109375 567.492188 607.953125 568.457031 607.953125 C 569.609375 607.761719 570.574219 608.53125 570.574219 609.492188 L 573.847656 629.527344 C 585.019531 640.890625 599.660156 664.195312 583.480469 698.097656 C 599.082031 711.386719 614.105469 726.027344 621.425781 738.738281 C 622.003906 739.703125 621.617188 740.859375 620.65625 741.4375 C 619.691406 742.011719 618.535156 741.628906 617.957031 740.664062 C 610.832031 728.335938 596 713.890625 580.589844 700.792969 C 579.820312 700.601562 579.242188 700.214844 579.050781 699.445312 C 569.226562 691.164062 559.402344 683.457031 551.121094 676.910156 C 541.488281 669.398438 534.554688 664.003906 532.628906 661.308594 C 529.160156 656.878906 526.273438 648.015625 523.960938 634.535156 C 522.421875 625.671875 522.035156 616.042969 522.804688 606.027344 C 523.191406 600.632812 522.421875 599.671875 522.421875 599.671875 C 518.375 600.054688 515.484375 612.960938 514.714844 621.628906 C 514.714844 622.398438 514.136719 623.167969 513.175781 623.363281 C 512.402344 623.554688 511.441406 623.167969 511.054688 622.589844 C 505.46875 613.730469 502.964844 595.238281 502.773438 594.46875 C 500.269531 576.171875 497.378906 566.925781 495.261719 562.300781 L 496.800781 612.382812 C 496.800781 613.347656 496.222656 614.117188 495.261719 614.308594 C 494.296875 614.5 493.527344 614.117188 493.140625 613.347656 L 477.539062 580.023438 L 472.726562 569.621094 C 474.265625 581.5625 478.3125 606.796875 484.28125 617.96875 C 484.859375 618.933594 484.476562 620.085938 483.511719 620.664062 C 483.125 620.859375 482.933594 620.859375 482.546875 620.859375 C 481.777344 620.859375 481.199219 620.472656 480.816406 619.894531 C 475.421875 609.878906 471.761719 589.652344 469.644531 576.363281 C 469.257812 598.515625 476 625.289062 476 625.480469 C 476.191406 626.445312 475.808594 627.40625 474.84375 627.792969 C 473.878906 628.175781 472.917969 627.792969 472.53125 627.023438 C 468.488281 620.28125 463.671875 609.492188 460.203125 601.210938 C 465.40625 638.191406 485.050781 660.535156 493.914062 668.820312 C 497.378906 672.09375 500.460938 676.140625 502.773438 680.761719 C 542.066406 757.808594 603.703125 803.457031 604.28125 804.035156 C 614.105469 810.96875 622.386719 813.472656 628.550781 811.164062 C 635.871094 808.464844 639.53125 799.414062 641.265625 792.285156 C 643.191406 785.351562 643.769531 777.839844 642.804688 769.941406 Z M 409.738281 682.6875 C 418.984375 676.140625 426.304688 668.625 431.699219 659.960938 C 437.863281 649.941406 441.136719 640.699219 441.519531 632.222656 C 442.097656 622.785156 443.0625 615.65625 444.601562 610.84375 C 445.179688 609.109375 446.722656 607.953125 448.457031 607.953125 C 450.1875 607.953125 451.730469 609.109375 452.308594 610.84375 L 458.277344 629.910156 L 462.132812 624.710938 C 459.050781 615.273438 456.546875 604.679688 455.773438 592.542969 C 455.773438 591.386719 456.546875 590.230469 457.699219 589.847656 C 458.855469 589.652344 460.203125 590.230469 460.589844 591.386719 C 462.324219 595.816406 465.984375 604.484375 469.835938 612.574219 C 468.292969 603.714844 466.5625 591.582031 466.367188 580.214844 C 466.367188 580.214844 466.175781 580.214844 466.175781 580.214844 C 465.984375 580.410156 465.789062 580.792969 465.597656 580.984375 L 407.429688 624.519531 C 407.234375 624.710938 382.195312 643.203125 378.535156 668.433594 C 376.800781 679.992188 379.882812 691.164062 387.394531 701.757812 C 393.945312 695.015625 401.648438 688.273438 409.738281 682.6875 Z M 339.433594 577.328125 C 341.167969 565.382812 348.488281 554.984375 359.082031 549.589844 C 362.546875 547.855469 366.59375 545.738281 370.636719 543.617188 C 378.535156 499.703125 408.199219 471.773438 415.710938 465.222656 C 414.554688 463.875 413.59375 462.527344 412.628906 460.988281 C 399.339844 469.460938 317.089844 524.355469 305.339844 592.15625 C 300.71875 619.316406 307.84375 645.511719 326.53125 669.976562 Z M 375.070312 541.308594 C 394.136719 531.484375 416.671875 519.734375 425.339844 514.535156 C 438.246094 506.828125 440.75 477.742188 441.328125 468.304688 L 437.667969 469.847656 C 435.164062 471.003906 432.660156 471.386719 429.964844 471.386719 C 427.460938 471.386719 424.761719 470.808594 422.453125 469.847656 C 421.105469 469.269531 419.949219 468.5 418.601562 467.726562 C 412.4375 472.929688 383.738281 499.316406 375.070312 541.308594 Z M 415.902344 524.164062 C 418.984375 532.0625 434.972656 569.429688 466.175781 576.363281 C 466.175781 574.050781 466.367188 571.933594 466.5625 569.621094 C 441.714844 562.109375 425.726562 529.363281 421.875 520.699219 C 420.140625 521.851562 418.023438 523.007812 415.902344 524.164062 Z M 477.734375 571.164062 L 480.621094 577.328125 C 484.667969 576.941406 488.519531 575.976562 491.988281 574.4375 L 491.792969 566.925781 C 487.554688 569.621094 482.742188 570.96875 477.734375 571.164062 Z M 505.664062 496.234375 C 508.359375 506.445312 518.375 512.609375 519.339844 513.378906 L 577.316406 538.03125 C 577.125 531.484375 573.078125 511.066406 538.214844 475.816406 C 524.347656 461.757812 513.558594 448.273438 505.277344 436.523438 C 504.699219 449.042969 503.160156 486.796875 505.664062 496.234375 Z M 499.304688 561.148438 C 500.269531 563.265625 501.039062 565.769531 502.003906 568.660156 C 519.722656 554.40625 525.5 527.054688 526.65625 520.503906 L 519.917969 517.617188 C 518.375 525.128906 512.789062 547.855469 499.304688 561.148438 Z M 562.292969 624.710938 C 562.292969 624.710938 562.097656 624.515625 562.097656 624.515625 L 503.929688 576.941406 C 505.085938 581.949219 506.046875 587.535156 506.816406 594.085938 C 506.816406 594.277344 508.359375 606.21875 511.828125 615.078125 C 513.175781 607.566406 516.0625 596.589844 522.226562 596.203125 C 523.382812 596.011719 524.539062 596.394531 525.308594 597.359375 C 526.851562 598.898438 527.234375 601.597656 526.851562 606.796875 C 526.078125 616.425781 526.273438 625.671875 527.8125 634.339844 C 530.125 646.859375 532.820312 655.527344 535.710938 659.382812 C 537.445312 661.691406 544.570312 667.277344 553.625 674.210938 C 561.519531 680.375 570.960938 687.886719 580.398438 695.785156 C 595.230469 664.003906 581.359375 642.625 570.960938 632.222656 C 570.765625 632.03125 570.382812 631.835938 570.1875 631.453125 C 566.335938 627.214844 562.871094 625.09375 562.292969 624.710938 Z M 492.179688 578.675781 C 489.097656 579.832031 485.824219 580.601562 482.355469 580.984375 L 492.949219 603.523438 Z M 635.484375 612.191406 C 647.8125 602.753906 654.554688 588.882812 654.554688 573.089844 C 654.363281 552.863281 643.191406 520.503906 590.605469 481.402344 C 547.269531 449.238281 511.25 418.417969 487.554688 397.230469 C 493.335938 410.519531 508.550781 440.183594 541.105469 473.121094 C 579.820312 512.222656 581.746094 533.796875 581.359375 539.574219 L 591.183594 543.8125 C 602.164062 548.433594 610.253906 558.066406 613.335938 569.429688 C 615.261719 576.75 618.726562 590.230469 623.160156 612.191406 C 627.589844 612.382812 631.632812 612.382812 635.484375 612.191406 Z M 461.359375 367.761719 C 472.726562 378.546875 523.382812 426.316406 592.917969 478.128906 C 646.851562 518.386719 658.214844 551.902344 658.40625 572.894531 C 658.40625 587.921875 652.820312 601.402344 642.035156 611.417969 C 663.03125 609.109375 677.089844 601.980469 686.144531 594.660156 C 686.144531 594.46875 686.144531 594.46875 686.144531 594.277344 C 686.144531 594.085938 690.960938 571.546875 684.601562 543.8125 C 678.632812 518.195312 661.683594 482.945312 614.492188 459.253906 C 566.335938 435.175781 532.4375 412.445312 512.402344 397.617188 C 492.757812 383.167969 482.742188 373.347656 480.429688 371.226562 C 473.6875 370.648438 467.332031 369.300781 461.359375 367.761719 Z M 714.074219 536.878906 C 701.9375 455.207031 572.113281 386.058594 562.871094 381.242188 C 537.058594 375.851562 512.597656 373.539062 493.335938 372.769531 C 493.335938 372.769531 493.335938 372.769531 493.140625 372.769531 C 491.023438 372.574219 488.90625 372.574219 486.980469 372.382812 C 499.5 383.746094 540.910156 418.417969 616.222656 456.171875 C 664.957031 480.441406 682.292969 517.039062 688.457031 543.425781 C 693.464844 565 691.921875 583.105469 690.765625 591.195312 C 701.746094 580.792969 705.40625 570.199219 705.40625 570.199219 C 705.40625 570.199219 705.40625 570.007812 705.597656 570.007812 C 705.597656 569.621094 711.953125 556.714844 714.074219 536.878906 Z M 529.546875 371.996094 C 531.085938 372.191406 532.820312 372.382812 534.363281 372.574219 C 532.820312 337.328125 525.117188 317.101562 523.960938 314.019531 C 517.027344 309.011719 508.550781 304.96875 497.765625 302.65625 C 510.863281 319.222656 520.878906 357.550781 522.035156 362.367188 C 524.347656 365.257812 526.65625 368.339844 529.160156 371.417969 C 529.546875 371.613281 529.546875 371.804688 529.546875 371.996094 Z M 576.546875 384.324219 C 590.027344 392.03125 612.949219 405.898438 636.0625 424.195312 C 666.113281 447.695312 702.515625 482.945312 714.652344 522.429688 C 714.265625 503.554688 709.257812 478.898438 691.539062 453.28125 C 665.726562 415.527344 620.65625 395.304688 576.546875 384.324219 Z M 529.738281 318.835938 C 532.628906 327.886719 537.058594 346.1875 538.214844 373.152344 C 542.644531 373.730469 547.265625 374.5 551.890625 375.273438 C 552.082031 367.183594 550.734375 338.289062 529.738281 318.835938 Z M 459.820312 300.921875 C 464.058594 302.464844 467.910156 304.582031 471.375 307.472656 C 480.042969 314.597656 494.296875 328.273438 516.0625 354.855469 C 510.476562 335.785156 499.304688 304.195312 488.328125 299.382812 C 477.539062 294.566406 465.789062 298.417969 459.820312 300.921875 Z M 413.207031 313.441406 C 420.527344 313.828125 436.128906 317.679688 458.855469 340.214844 C 484.089844 365.257812 491.601562 368.339844 492.949219 368.722656 C 493.140625 368.722656 493.335938 368.722656 493.527344 368.722656 C 502.773438 369.109375 513.175781 369.878906 524.347656 371.226562 C 496.417969 335.59375 478.890625 318.449219 469.066406 310.359375 C 461.359375 304.003906 451.152344 301.113281 441.328125 302.269531 C 428.421875 304.003906 419.5625 308.625 413.207031 313.441406 Z M 400.878906 329.429688 C 403.191406 331.933594 410.703125 339.636719 423.609375 347.535156 C 436.320312 355.433594 456.929688 365.0625 484.28125 367.953125 C 477.539062 363.136719 468.101562 354.664062 456.351562 342.914062 C 426.691406 313.441406 409.933594 317.488281 409.738281 317.488281 C 409.546875 317.488281 409.160156 317.488281 408.96875 317.488281 C 403.960938 322.6875 401.84375 327.3125 400.878906 329.429688 Z M 406.851562 433.636719 C 412.050781 434.019531 416.671875 432.285156 419.949219 430.359375 C 409.355469 426.699219 403.960938 428.433594 402.804688 429.011719 C 401.84375 430.167969 401.265625 431.324219 401.457031 432.09375 C 401.457031 432.480469 403.191406 433.25 406.851562 433.636719 Z M 407.042969 443.457031 C 407.429688 444.035156 409.160156 444.230469 412.628906 442.878906 L 415.710938 441.53125 C 416.671875 441.148438 417.828125 441.53125 418.214844 442.496094 C 418.601562 443.457031 418.214844 444.613281 417.25 445 L 413.976562 446.539062 C 413.398438 446.734375 412.242188 447.117188 411.085938 447.503906 L 415.132812 457.710938 C 416.671875 461.757812 419.753906 464.839844 423.800781 466.574219 C 427.84375 468.304688 432.082031 468.304688 436.128906 466.574219 L 459.242188 456.554688 C 460.203125 456.171875 461.359375 456.554688 461.746094 457.519531 C 462.132812 458.480469 461.746094 459.636719 460.78125 460.023438 L 445.179688 466.765625 C 444.988281 473.890625 443.0625 508.5625 427.269531 518 C 426.691406 518.386719 426.113281 518.769531 425.339844 519.15625 C 428.617188 526.476562 444.023438 558.644531 466.945312 565.960938 C 466.945312 565.382812 467.140625 565 467.140625 564.421875 C 467.332031 562.878906 468.679688 561.53125 470.222656 561.339844 C 471.761719 561.148438 473.496094 561.917969 474.074219 563.457031 L 476 567.3125 C 481.585938 567.503906 486.980469 565.769531 491.792969 562.496094 C 491.792969 560.570312 492.949219 559.027344 494.875 558.644531 C 495.453125 558.449219 496.03125 558.449219 496.417969 558.644531 C 509.898438 545.546875 515.292969 521.46875 516.449219 515.882812 C 513.367188 513.761719 504.699219 507.214844 502.003906 497.199219 C 498.921875 485.449219 501.617188 434.210938 501.808594 432.09375 C 501.808594 431.902344 501.808594 431.515625 502.003906 431.324219 C 487.75 409.75 481.96875 394.339844 481.007812 391.453125 C 465.214844 377.199219 456.351562 368.53125 456.160156 368.339844 C 455.582031 367.761719 455.390625 366.988281 455.773438 366.410156 C 441.328125 361.980469 429.773438 356.203125 421.488281 351.003906 C 409.160156 343.296875 401.648438 335.976562 398.761719 332.898438 C 392.789062 339.058594 369.867188 363.523438 375.261719 378.355469 C 377.574219 384.902344 385.46875 388.949219 398.566406 390.105469 L 399.339844 388.753906 C 392.789062 361.980469 399.339844 347.34375 399.722656 346.765625 C 400.109375 345.800781 401.265625 345.417969 402.226562 345.800781 C 403.191406 346.1875 403.574219 347.34375 403.191406 348.304688 C 403.191406 348.5 396.835938 362.753906 403.382812 388.5625 C 403.574219 389.140625 403.382812 389.527344 403.191406 389.910156 L 394.90625 404.355469 C 393.945312 406.667969 394.90625 409.363281 397.027344 410.519531 L 399.722656 412.0625 C 401.84375 413.023438 403.574219 414.757812 403.960938 417.070312 L 405.695312 424.195312 C 409.546875 423.8125 415.519531 424.003906 423.992188 427.472656 C 425.148438 426.507812 425.726562 425.929688 425.726562 425.929688 C 426.496094 425.160156 427.652344 425.160156 428.421875 425.738281 C 429.195312 426.507812 429.195312 427.664062 428.617188 428.433594 C 428.230469 428.820312 420.332031 437.292969 408.777344 437.292969 C 408.582031 437.292969 408.390625 437.292969 408.390625 437.292969 C 406.851562 439.796875 406.273438 442.496094 407.042969 443.457031 Z M 323.0625 696.171875 L 325.953125 675.175781 C 304.765625 648.980469 296.671875 620.859375 301.683594 591.386719 C 313.816406 521.082031 399.144531 464.839844 411.085938 457.328125 L 409.546875 453.28125 C 381.039062 467.921875 340.011719 497.777344 320.75 518 C 279.339844 561.917969 262.003906 601.210938 269.324219 635.113281 C 277.414062 672.480469 313.625 691.742188 323.0625 696.171875 Z M 465.019531 683.652344 C 466.753906 680.375 469.449219 677.679688 472.53125 675.945312 L 487.363281 667.855469 C 480.429688 660.34375 470.414062 647.4375 463.480469 629.332031 L 458.855469 635.496094 C 458.472656 636.074219 457.699219 636.265625 456.929688 636.265625 C 456.160156 636.074219 455.582031 635.6875 455.390625 634.917969 L 448.261719 612.191406 C 448.261719 612.191406 448.261719 611.996094 448.070312 611.996094 C 447.878906 611.996094 447.878906 611.996094 447.878906 612.191406 C 446.914062 615.273438 445.566406 621.242188 444.988281 632.609375 C 444.601562 641.851562 440.941406 651.675781 434.585938 662.269531 C 429 671.324219 421.296875 679.414062 411.664062 686.15625 C 380.847656 707.726562 355.230469 746.828125 354.84375 747.214844 C 354.457031 747.792969 353.878906 748.175781 353.304688 748.175781 C 352.917969 748.175781 352.53125 747.984375 352.339844 747.792969 C 351.375 747.214844 351.183594 746.058594 351.761719 745.09375 C 351.953125 744.902344 365.246094 724.484375 384.121094 705.03125 C 375.644531 693.28125 372.371094 680.953125 374.296875 668.242188 C 375.839844 658.03125 380.460938 648.980469 385.664062 641.660156 L 390.09375 613.730469 C 390.285156 612.769531 391.25 611.996094 392.210938 612.191406 C 393.175781 612.382812 393.945312 613.347656 393.753906 614.308594 L 390.285156 635.304688 C 397.21875 627.023438 403.960938 622.207031 404.539062 621.820312 L 460.976562 579.445312 C 447.300781 575.207031 434.78125 565.191406 424.570312 549.976562 C 417.636719 539.960938 413.59375 530.328125 412.050781 526.285156 C 396.449219 534.566406 374.683594 545.929688 360.429688 553.25 C 350.800781 558.257812 344.25 567.503906 342.710938 578.097656 L 317.667969 759.542969 C 315.933594 772.832031 320.75 785.929688 330.960938 794.597656 C 343.863281 805.769531 363.125 806.15625 376.609375 795.753906 C 399.722656 778.417969 433.238281 744.710938 465.019531 683.652344 Z M 347.910156 904.96875 L 474.074219 770.714844 C 485.246094 758.964844 500.847656 752.800781 517.027344 753.957031 C 533.207031 755.113281 547.652344 763.585938 556.898438 776.878906 L 590.222656 825.609375 L 608.519531 853.921875 L 618.535156 869.527344 C 615.261719 855.273438 601.199219 817.328125 595.230469 801.53125 C 577.699219 786.894531 531.472656 744.902344 499.691406 682.6875 C 497.574219 678.449219 494.875 674.789062 491.601562 671.707031 C 491.214844 671.324219 490.832031 670.9375 490.253906 670.359375 L 474.457031 679.027344 C 471.953125 680.375 469.835938 682.496094 468.488281 685.191406 C 445.375 729.878906 421.105469 759.925781 400.878906 779.957031 C 401.84375 785.542969 404.730469 811.164062 382.386719 840.824219 C 359.851562 870.875 350.027344 889.171875 347.910156 904.96875 Z M 319.59375 1025.542969 C 329.804688 998.191406 348.871094 962.75 407.042969 955.625 C 407.234375 955.238281 407.621094 954.660156 408.007812 954.46875 C 496.03125 917.871094 519.53125 837.550781 519.722656 836.78125 C 520.109375 835.816406 521.070312 835.238281 522.035156 835.433594 C 522.996094 835.816406 523.574219 836.78125 523.382812 837.742188 C 523.191406 838.320312 512.980469 873.183594 481.199219 907.855469 L 483.320312 929.8125 C 487.171875 926.539062 490.636719 922.878906 493.140625 919.027344 C 504.699219 900.34375 522.035156 890.90625 531.28125 886.859375 C 539.179688 883.585938 545.917969 879.925781 552.082031 875.882812 C 568.261719 865.289062 587.332031 848.144531 586.5625 827.34375 L 553.429688 779.1875 C 544.957031 766.859375 531.472656 758.964844 516.449219 757.808594 C 501.425781 756.652344 486.980469 762.238281 476.578125 773.21875 L 298.984375 962.558594 C 278.953125 983.941406 256.222656 1002.816406 231.761719 1018.804688 C 200.945312 1038.640625 168.199219 1057.132812 134.683594 1073.507812 C 133.71875 1073.890625 133.335938 1074.660156 133.335938 1075.625 C 133.335938 1076.589844 133.914062 1077.359375 134.683594 1077.742188 C 140.078125 1080.054688 146.816406 1081.597656 154.523438 1082.367188 C 163 1083.328125 171.664062 1081.980469 179.753906 1078.898438 C 196.320312 1072.351562 227.140625 1062.335938 249.289062 1068.304688 C 262.773438 1072.15625 277.027344 1068.304688 286.851562 1058.480469 L 319.015625 1025.738281 C 319.210938 1025.738281 319.402344 1025.542969 319.59375 1025.542969 Z M 417.058594 954.660156 C 418.214844 954.660156 419.371094 954.46875 420.71875 954.46875 C 429 954.085938 437.089844 952.542969 444.796875 950.039062 C 454.234375 946.765625 468.488281 940.984375 479.851562 932.703125 L 477.734375 911.707031 C 462.515625 927.308594 442.675781 942.914062 417.058594 954.660156 Z M 501.425781 1071.386719 C 513.753906 1069.269531 536.289062 1062.71875 549.773438 1042.496094 C 570.765625 1011.097656 603.898438 1006.859375 605.4375 1006.667969 C 606.402344 1006.476562 607.363281 1007.246094 607.554688 1008.402344 C 607.75 1009.363281 606.980469 1010.328125 605.824219 1010.519531 C 605.628906 1010.519531 587.140625 1013.023438 569.609375 1026.699219 L 597.734375 1033.828125 C 603.125 1035.175781 608.90625 1034.210938 613.527344 1030.9375 L 630.476562 1018.996094 C 637.027344 1014.371094 645.308594 1013.796875 652.242188 1017.261719 C 652.4375 1017.070312 652.628906 1016.875 652.820312 1016.875 C 666.496094 1008.785156 664.761719 987.40625 662.453125 975.464844 C 661.296875 969.492188 658.792969 963.523438 655.132812 957.742188 C 654.746094 957.164062 654.363281 956.589844 653.976562 956.011719 C 650.316406 949.847656 648.003906 942.527344 647.234375 934.246094 C 647.042969 931.164062 646.273438 928.082031 645.308594 925 C 640.6875 933.859375 627.394531 955.816406 604.859375 963.523438 C 556.128906 980.085938 540.910156 1023.039062 540.71875 1023.425781 C 540.527344 1024.195312 539.753906 1024.773438 538.984375 1024.773438 C 538.792969 1024.773438 538.601562 1024.773438 538.40625 1024.582031 C 537.445312 1024.195312 536.867188 1023.039062 537.25 1022.078125 C 537.445312 1021.691406 553.429688 977.003906 603.898438 959.863281 C 629.707031 951.003906 643.191406 921.339844 643.960938 919.605469 C 640.6875 910.746094 636.449219 903.617188 636.257812 903.617188 L 607.941406 859.703125 C 604.472656 869.332031 592.917969 893.988281 559.59375 909.203125 C 559.402344 909.398438 559.015625 909.398438 558.824219 909.398438 C 558.054688 909.398438 557.476562 909.011719 557.089844 908.242188 C 556.707031 907.277344 557.089844 906.121094 558.054688 905.738281 C 594.265625 889.171875 603.898438 860.472656 605.4375 855.464844 L 590.992188 833.121094 C 588.679688 853.152344 570.574219 869.140625 554.972656 879.347656 C 548.617188 883.585938 541.683594 887.246094 533.589844 890.714844 C 526.464844 893.796875 508.746094 902.847656 497.1875 921.339844 C 487.171875 937.328125 464.25 947.921875 446.722656 953.890625 C 438.632812 956.589844 430.15625 958.320312 421.488281 958.515625 C 346.175781 961.597656 329.804688 1009.171875 319.980469 1037.871094 C 319.402344 1039.605469 318.824219 1041.148438 318.246094 1042.6875 C 317.863281 1043.652344 317.667969 1044.613281 317.285156 1045.382812 C 310.15625 1063.683594 295.324219 1078.320312 276.640625 1085.832031 C 262.964844 1091.226562 261.230469 1095.464844 261.230469 1096.8125 C 261.039062 1099.316406 264.507812 1101.4375 267.394531 1102.976562 C 275.484375 1107.023438 278.953125 1110.875 278.566406 1114.726562 C 277.605469 1120.890625 266.046875 1123.394531 263.738281 1123.777344 L 244.667969 1126.28125 C 239.273438 1127.054688 234.074219 1128.402344 229.449219 1130.519531 C 223.09375 1133.410156 223.09375 1135.144531 223.09375 1135.144531 C 223.671875 1138.03125 239.082031 1141.113281 256.03125 1142.078125 L 383.160156 1142.078125 C 397.410156 1142.078125 410.894531 1139.765625 423.222656 1135.144531 C 439.402344 1128.980469 449.609375 1120.890625 453.464844 1110.875 C 455.582031 1105.289062 458.664062 1099.894531 462.324219 1095.078125 C 471.183594 1082.367188 485.246094 1074.085938 501.425781 1071.386719 Z M 739.113281 1067.535156 C 739.304688 1066.570312 738.726562 1065.222656 737.378906 1064.839844 L 685.953125 1050.199219 C 679.980469 1048.464844 674.78125 1045.191406 670.542969 1040.570312 L 655.324219 1023.8125 C 649.355469 1017.648438 639.722656 1016.875 632.597656 1021.886719 L 615.644531 1033.828125 C 610.058594 1037.679688 603.320312 1039.027344 596.769531 1037.292969 L 565.953125 1029.398438 C 561.328125 1033.441406 556.898438 1038.449219 552.851562 1044.226562 C 538.40625 1065.800781 514.714844 1072.734375 501.808594 1074.855469 C 494.492188 1076.203125 487.554688 1078.515625 481.394531 1082.171875 L 736.609375 1069.460938 C 738.34375 1069.652344 738.921875 1068.5 739.113281 1067.535156 Z M 493.140625 235.816406 C 493.140625 235.816406 493.335938 235.816406 493.335938 235.816406 C 494.296875 235.816406 495.070312 235.046875 495.261719 234.085938 L 496.800781 221.5625 C 496.996094 220.601562 496.222656 219.636719 495.070312 219.445312 C 493.914062 219.253906 493.140625 220.023438 492.949219 221.179688 L 491.601562 233.699219 C 491.410156 234.855469 492.179688 235.816406 493.140625 235.816406 Z M 490.253906 262.015625 C 490.253906 262.015625 490.445312 262.015625 490.445312 262.015625 C 491.410156 262.015625 492.179688 261.242188 492.371094 260.28125 L 494.492188 241.402344 C 494.683594 240.441406 493.914062 239.476562 492.757812 239.285156 C 491.601562 239.09375 490.832031 239.863281 490.636719 241.019531 L 488.519531 259.894531 C 488.328125 260.859375 489.097656 261.820312 490.253906 262.015625 Z M 487.363281 285.511719 C 487.363281 285.511719 487.554688 285.511719 487.554688 285.511719 C 488.519531 285.511719 489.289062 284.742188 489.484375 283.78125 L 491.214844 268.753906 C 491.410156 267.792969 490.636719 266.828125 489.484375 266.636719 C 488.328125 266.445312 487.554688 267.214844 487.363281 268.371094 L 485.628906 283.394531 C 485.628906 284.550781 486.402344 285.511719 487.363281 285.511719 Z M 508.9375 261.628906 C 509.128906 261.628906 509.128906 261.628906 509.320312 261.628906 C 510.285156 261.628906 511.054688 261.050781 511.25 260.085938 L 512.210938 254.695312 C 512.402344 253.730469 511.632812 252.574219 510.671875 252.382812 C 509.707031 252.191406 508.550781 252.960938 508.359375 253.925781 L 507.394531 259.316406 C 507.203125 260.472656 507.78125 261.4375 508.9375 261.628906 Z M 503.734375 288.59375 C 503.929688 288.59375 503.929688 288.59375 504.121094 288.59375 C 505.085938 288.59375 505.855469 288.015625 506.046875 287.054688 L 509.707031 267.601562 C 509.898438 266.636719 509.128906 265.480469 508.167969 265.289062 C 507.203125 265.09375 506.046875 265.867188 505.855469 266.828125 L 502.195312 286.285156 C 502.003906 287.4375 502.773438 288.402344 503.734375 288.59375 Z M 526.65625 257.390625 C 526.851562 257.390625 527.042969 257.390625 527.234375 257.390625 C 528.007812 257.390625 528.777344 256.8125 529.160156 256.042969 L 535.710938 232.542969 C 535.902344 231.582031 535.324219 230.425781 534.363281 230.230469 C 533.398438 230.039062 532.242188 230.617188 532.050781 231.582031 L 525.5 255.078125 C 524.925781 256.234375 525.5 257.199219 526.65625 257.390625 Z M 522.421875 272.414062 C 522.613281 272.414062 522.804688 272.414062 522.996094 272.414062 C 523.769531 272.414062 524.539062 271.835938 524.925781 271.066406 L 527.234375 262.398438 C 527.429688 261.4375 526.851562 260.28125 525.886719 260.085938 C 524.925781 259.894531 523.769531 260.472656 523.574219 261.4375 L 521.265625 270.105469 C 520.878906 271.066406 521.457031 272.222656 522.421875 272.414062 Z M 517.027344 292.253906 C 517.21875 292.253906 517.410156 292.253906 517.605469 292.253906 C 518.375 292.253906 519.144531 291.675781 519.53125 290.90625 L 522.996094 278.195312 C 523.191406 277.230469 522.613281 276.074219 521.648438 275.882812 C 520.6875 275.691406 519.53125 276.265625 519.339844 277.230469 L 515.871094 289.941406 C 515.484375 290.90625 516.0625 291.871094 517.027344 292.253906 Z M 570.765625 232.542969 C 571.152344 232.734375 571.539062 232.929688 571.730469 232.929688 C 572.308594 232.929688 573.078125 232.542969 573.269531 231.964844 L 574.617188 229.652344 C 575.195312 228.691406 575.003906 227.535156 574.042969 226.957031 C 573.078125 226.378906 571.921875 226.574219 571.34375 227.535156 L 569.996094 229.847656 C 569.609375 230.808594 569.804688 231.964844 570.765625 232.542969 Z M 561.714844 246.796875 C 562.097656 246.988281 562.484375 247.183594 562.675781 247.183594 C 563.253906 247.183594 564.023438 246.796875 564.21875 246.21875 L 569.804688 237.550781 C 570.382812 236.589844 570.1875 235.433594 569.226562 234.855469 C 568.261719 234.277344 567.105469 234.46875 566.527344 235.433594 L 560.941406 244.101562 C 560.558594 245.0625 560.75 246.21875 561.714844 246.796875 Z M 544.378906 274.148438 C 544.761719 274.339844 545.148438 274.535156 545.339844 274.535156 C 545.917969 274.535156 546.691406 274.148438 546.882812 273.570312 L 559.59375 253.539062 C 560.171875 252.574219 559.980469 251.417969 559.015625 250.84375 C 558.054688 250.265625 556.898438 250.457031 556.320312 251.417969 L 543.800781 271.453125 C 543.222656 272.414062 543.414062 273.570312 544.378906 274.148438 Z M 529.933594 296.878906 C 530.316406 297.070312 530.703125 297.261719 530.894531 297.261719 C 531.472656 297.261719 532.242188 296.878906 532.4375 296.300781 L 541.875 281.277344 C 542.453125 280.3125 542.257812 279.15625 541.296875 278.578125 C 540.332031 278 539.175781 278.195312 538.601562 279.15625 L 529.160156 294.179688 C 528.777344 295.144531 528.96875 296.300781 529.933594 296.878906 Z M 555.164062 288.789062 L 564.988281 278.964844 C 565.757812 278.195312 565.757812 277.039062 564.988281 276.265625 C 564.21875 275.496094 563.0625 275.496094 562.292969 276.265625 L 552.46875 286.089844 C 551.699219 286.859375 551.699219 288.015625 552.46875 288.789062 C 552.851562 289.171875 553.429688 289.367188 553.816406 289.367188 C 554.394531 289.367188 554.972656 289.171875 555.164062 288.789062 Z M 551.121094 290.136719 C 550.347656 289.367188 549.195312 289.367188 548.421875 290.136719 L 538.601562 299.960938 C 537.828125 300.730469 537.828125 301.886719 538.601562 302.65625 C 538.984375 303.042969 539.5625 303.234375 539.949219 303.234375 C 540.527344 303.234375 540.910156 303.042969 541.296875 302.65625 L 551.121094 292.832031 C 551.890625 292.0625 551.890625 290.90625 551.121094 290.136719 Z M 586.367188 281.851562 C 586.753906 281.851562 587.140625 281.660156 587.523438 281.46875 L 595.035156 275.882812 C 595.808594 275.304688 596 274.148438 595.421875 273.183594 C 594.84375 272.414062 593.496094 272.222656 592.726562 272.800781 L 585.214844 278.386719 C 584.441406 278.964844 584.25 280.121094 584.828125 281.082031 C 585.214844 281.660156 585.789062 281.851562 586.367188 281.851562 Z M 574.425781 288.59375 C 574.8125 289.171875 575.390625 289.367188 575.96875 289.367188 C 576.351562 289.367188 576.738281 289.171875 577.125 288.980469 L 581.9375 285.511719 C 582.707031 284.933594 582.902344 283.78125 582.324219 282.816406 C 581.746094 282.046875 580.398438 281.851562 579.628906 282.429688 L 574.8125 285.898438 C 574.042969 286.476562 573.847656 287.632812 574.425781 288.59375 Z M 546.882812 310.554688 C 547.265625 310.554688 547.652344 310.359375 548.039062 310.167969 L 571.539062 293.21875 C 572.308594 292.640625 572.5 291.484375 571.921875 290.519531 C 571.34375 289.75 569.996094 289.558594 569.226562 290.136719 L 545.726562 307.085938 C 544.957031 307.664062 544.761719 308.820312 545.339844 309.78125 C 545.726562 310.167969 546.304688 310.554688 546.882812 310.554688 Z M 623.734375 286.859375 C 623.929688 286.859375 624.3125 286.859375 624.507812 286.667969 L 634.523438 281.851562 C 635.484375 281.46875 635.871094 280.3125 635.484375 279.347656 C 635.101562 278.386719 633.945312 278 632.980469 278.386719 L 622.964844 283.203125 C 622.003906 283.585938 621.617188 284.742188 622.003906 285.707031 C 622.195312 286.285156 622.964844 286.859375 623.734375 286.859375 Z M 599.082031 298.609375 C 599.273438 298.609375 599.660156 298.609375 599.851562 298.417969 L 617.957031 289.75 C 618.921875 289.367188 619.304688 288.210938 618.921875 287.246094 C 618.535156 286.285156 617.378906 285.898438 616.417969 286.285156 L 598.3125 294.949219 C 597.347656 295.335938 596.960938 296.492188 597.347656 297.457031 C 597.734375 298.226562 598.3125 298.609375 599.082031 298.609375 Z M 588.292969 303.8125 C 588.488281 303.8125 588.871094 303.8125 589.066406 303.617188 L 594.265625 301.113281 C 595.230469 300.730469 595.613281 299.574219 595.230469 298.609375 C 594.84375 297.648438 593.6875 297.261719 592.726562 297.648438 L 587.523438 300.152344 C 586.5625 300.535156 586.175781 301.691406 586.5625 302.65625 C 586.945312 303.425781 587.523438 303.8125 588.292969 303.8125 Z M 581.9375 302.847656 L 567.300781 309.976562 C 566.335938 310.359375 565.953125 311.515625 566.335938 312.480469 C 566.722656 313.25 567.300781 313.636719 568.070312 313.636719 C 568.261719 313.636719 568.648438 313.636719 568.839844 313.441406 L 583.480469 306.316406 C 584.441406 305.929688 584.828125 304.773438 584.441406 303.8125 C 583.863281 302.847656 582.902344 302.464844 581.9375 302.847656 Z M 553.625 320.570312 C 553.816406 320.570312 554.203125 320.570312 554.394531 320.375 L 560.941406 317.292969 C 561.90625 316.910156 562.292969 315.753906 561.90625 314.789062 C 561.519531 313.828125 560.367188 313.441406 559.402344 313.828125 L 552.851562 316.910156 C 551.890625 317.292969 551.503906 318.449219 551.890625 319.414062 C 552.277344 320.183594 552.851562 320.570312 553.625 320.570312 Z M 608.328125 311.132812 C 608.519531 311.902344 609.289062 312.480469 610.058594 312.480469 C 610.253906 312.480469 610.445312 312.480469 610.636719 312.285156 L 622.773438 307.855469 C 623.734375 307.472656 624.3125 306.316406 623.929688 305.351562 C 623.542969 304.390625 622.386719 303.8125 621.425781 304.195312 L 609.289062 308.625 C 608.519531 309.011719 607.941406 310.167969 608.328125 311.132812 Z M 605.050781 312.285156 C 604.667969 311.324219 603.511719 310.746094 602.546875 311.132812 L 581.167969 318.835938 C 580.203125 319.222656 579.628906 320.375 580.011719 321.339844 C 580.203125 322.109375 580.976562 322.6875 581.746094 322.6875 C 581.9375 322.6875 582.132812 322.6875 582.324219 322.496094 L 603.703125 314.789062 C 604.859375 314.40625 605.4375 313.25 605.050781 312.285156 Z M 577.316406 322.109375 C 576.929688 321.148438 575.773438 320.570312 574.8125 320.953125 L 558.4375 326.734375 C 557.476562 327.117188 556.898438 328.273438 557.285156 329.238281 C 557.476562 330.007812 558.246094 330.585938 559.015625 330.585938 C 559.210938 330.585938 559.402344 330.585938 559.59375 330.390625 L 575.96875 324.613281 C 577.316406 324.230469 577.699219 323.265625 577.316406 322.109375 Z M 591.953125 339.253906 L 606.980469 337.90625 C 607.941406 337.90625 608.90625 336.941406 608.710938 335.785156 C 608.710938 334.824219 607.75 334.050781 606.59375 334.050781 L 591.761719 335.402344 C 590.800781 335.402344 589.835938 336.363281 590.027344 337.519531 C 590.027344 338.484375 590.800781 339.253906 591.953125 339.253906 Z M 574.617188 340.792969 C 574.617188 340.792969 574.8125 340.792969 574.617188 340.792969 L 585.789062 339.832031 C 586.753906 339.832031 587.71875 338.867188 587.523438 337.710938 C 587.523438 336.75 586.5625 335.976562 585.40625 335.976562 L 574.425781 336.941406 C 573.464844 336.941406 572.5 337.90625 572.691406 339.058594 C 572.886719 340.023438 573.65625 340.792969 574.617188 340.792969 Z M 563.449219 337.90625 C 562.484375 337.90625 561.519531 338.867188 561.714844 340.023438 C 561.714844 340.988281 562.675781 341.757812 563.640625 341.757812 C 563.640625 341.757812 563.832031 341.757812 563.832031 341.757812 L 567.492188 341.371094 C 568.457031 341.371094 569.417969 340.410156 569.226562 339.253906 C 569.226562 338.289062 568.261719 337.328125 567.105469 337.519531 Z M 286.464844 329.816406 C 286.464844 328.851562 287.042969 328.082031 288.007812 327.886719 C 301.488281 324.613281 303.609375 322.6875 306.882812 309.011719 C 307.074219 308.050781 307.84375 307.472656 308.808594 307.472656 C 309.773438 307.472656 310.542969 308.050781 310.734375 309.011719 C 314.007812 322.496094 315.933594 324.613281 329.609375 327.886719 C 330.574219 328.082031 331.152344 328.851562 331.152344 329.816406 C 331.152344 330.777344 330.574219 331.546875 329.609375 331.742188 C 316.128906 335.015625 314.007812 336.941406 310.734375 350.617188 C 310.542969 351.582031 309.773438 352.15625 308.808594 352.15625 C 307.84375 352.15625 307.074219 351.582031 306.882812 350.617188 C 303.609375 337.132812 301.683594 335.015625 288.007812 331.742188 C 287.042969 331.546875 286.464844 330.777344 286.464844 329.816406 Z M 295.710938 329.816406 C 303.03125 332.320312 306.304688 335.59375 308.808594 342.914062 C 311.3125 335.59375 314.585938 332.320312 321.90625 329.816406 C 314.585938 327.3125 311.3125 324.035156 308.808594 316.71875 C 306.304688 324.230469 303.03125 327.3125 295.710938 329.816406 Z M 765.5 755.6875 C 765.5 756.652344 764.925781 757.421875 763.960938 757.617188 C 750.476562 760.890625 748.359375 762.816406 745.085938 776.492188 C 744.890625 777.453125 744.121094 778.03125 743.160156 778.03125 C 742.195312 778.03125 741.425781 777.453125 741.230469 776.492188 C 737.957031 763.007812 736.03125 760.890625 722.355469 757.617188 C 721.394531 757.421875 720.816406 756.652344 720.816406 755.6875 C 720.816406 754.726562 721.394531 753.957031 722.355469 753.761719 C 735.839844 750.488281 737.957031 748.5625 741.230469 734.886719 C 741.425781 733.921875 742.195312 733.347656 743.160156 733.347656 C 744.121094 733.347656 744.890625 733.921875 745.085938 734.886719 C 748.359375 748.371094 750.285156 750.488281 763.960938 753.761719 C 764.925781 753.957031 765.5 754.726562 765.5 755.6875 Z M 756.449219 755.6875 C 749.128906 753.183594 745.855469 749.910156 743.351562 742.589844 C 740.847656 749.910156 737.574219 753.183594 730.253906 755.6875 C 737.574219 758.191406 740.847656 761.46875 743.351562 768.789062 C 745.855469 761.46875 749.128906 758.191406 756.449219 755.6875 Z M 318.246094 422.847656 L 339.050781 420.152344 L 341.746094 399.542969 C 341.9375 398.578125 342.710938 397.808594 343.671875 397.808594 C 344.636719 397.808594 345.40625 398.578125 345.597656 399.542969 L 348.296875 420.152344 L 369.097656 422.847656 C 370.0625 423.039062 370.832031 423.8125 370.832031 424.773438 C 370.832031 425.738281 370.0625 426.507812 369.097656 426.699219 L 348.296875 429.398438 L 345.597656 450.199219 C 345.40625 451.164062 344.636719 451.933594 343.671875 451.933594 C 342.710938 451.933594 341.9375 451.164062 341.746094 450.199219 L 339.050781 429.398438 L 318.246094 426.699219 C 317.285156 426.507812 316.511719 425.738281 316.511719 424.773438 C 316.511719 423.8125 317.285156 423.039062 318.246094 422.847656 Z M 333.464844 424.773438 L 340.78125 425.738281 C 341.746094 425.929688 342.324219 426.507812 342.515625 427.472656 L 343.480469 434.789062 L 344.441406 427.472656 C 344.636719 426.507812 345.214844 425.929688 346.175781 425.738281 L 353.496094 424.773438 L 346.175781 423.8125 C 345.214844 423.617188 344.636719 423.039062 344.441406 422.078125 L 343.480469 414.757812 L 342.515625 422.078125 C 342.324219 423.039062 341.746094 423.617188 340.78125 423.8125 Z M 717.347656 668.433594 C 718.3125 668.625 719.082031 669.398438 719.082031 670.359375 C 719.082031 671.324219 718.3125 672.09375 717.347656 672.285156 L 692.886719 675.367188 L 689.804688 699.832031 C 689.609375 700.792969 688.839844 701.5625 687.878906 701.5625 C 686.914062 701.5625 686.144531 700.792969 685.953125 699.832031 L 682.871094 675.367188 L 658.40625 672.285156 C 657.445312 672.09375 656.671875 671.324219 656.671875 670.359375 C 656.671875 669.398438 657.445312 668.625 658.40625 668.433594 L 682.871094 665.160156 L 685.953125 640.699219 C 686.144531 639.734375 686.914062 638.964844 687.878906 638.964844 C 688.839844 638.964844 689.609375 639.734375 689.804688 640.699219 L 692.886719 665.160156 Z M 701.9375 670.359375 L 690.765625 669.011719 C 689.804688 668.820312 689.226562 668.242188 689.03125 667.277344 L 687.683594 656.105469 L 686.335938 667.277344 C 686.144531 668.242188 685.566406 668.820312 684.601562 669.011719 L 673.429688 670.554688 L 684.601562 671.902344 C 685.566406 672.09375 686.144531 672.671875 686.335938 673.632812 L 687.683594 684.804688 L 689.03125 673.632812 C 689.226562 672.671875 689.804688 672.09375 690.765625 671.902344 Z M 355.808594 264.132812 C 355.808594 258.355469 360.429688 253.730469 366.207031 253.730469 C 371.988281 253.730469 376.609375 258.355469 376.609375 264.132812 C 376.609375 269.910156 371.988281 274.535156 366.207031 274.535156 C 360.429688 274.535156 355.808594 269.71875 355.808594 264.132812 Z M 359.660156 264.132812 C 359.660156 267.792969 362.546875 270.679688 366.207031 270.679688 C 369.867188 270.679688 372.757812 267.792969 372.757812 264.132812 C 372.757812 260.472656 369.867188 257.582031 366.207031 257.582031 C 362.546875 257.582031 359.660156 260.472656 359.660156 264.132812 Z M 246.785156 488.914062 C 246.785156 484.292969 250.636719 480.441406 255.261719 480.441406 C 259.882812 480.441406 263.738281 484.292969 263.738281 488.914062 C 263.738281 493.539062 259.882812 497.390625 255.261719 497.390625 C 250.636719 497.199219 246.785156 493.539062 246.785156 488.914062 Z M 250.636719 488.914062 C 250.636719 491.417969 252.757812 493.539062 255.261719 493.539062 C 257.765625 493.539062 259.882812 491.417969 259.882812 488.914062 C 259.882812 486.410156 257.765625 484.292969 255.261719 484.292969 C 252.757812 484.292969 250.636719 486.410156 250.636719 488.914062 Z M 770.511719 680.761719 C 770.511719 685.191406 767.042969 688.660156 762.613281 688.660156 C 758.183594 688.660156 754.714844 685.191406 754.714844 680.761719 C 754.714844 676.332031 758.183594 672.863281 762.613281 672.863281 C 767.042969 672.863281 770.511719 676.332031 770.511719 680.761719 Z M 766.65625 680.761719 C 766.65625 678.449219 764.925781 676.714844 762.613281 676.714844 C 760.300781 676.714844 758.566406 678.449219 758.566406 680.761719 C 758.566406 683.074219 760.300781 684.804688 762.613281 684.804688 C 764.925781 684.804688 766.65625 682.878906 766.65625 680.761719 Z M 682.097656 820.214844 C 679.015625 820.214844 676.511719 822.71875 676.511719 825.800781 C 676.511719 828.882812 679.015625 831.386719 682.097656 831.386719 C 685.179688 831.386719 687.683594 828.882812 687.683594 825.800781 C 687.683594 822.71875 685.179688 820.214844 682.097656 820.214844 Z M 726.980469 610.84375 C 728.710938 610.84375 730.253906 609.300781 730.253906 607.566406 C 730.253906 605.832031 728.710938 604.292969 726.980469 604.292969 C 725.246094 604.292969 723.703125 605.832031 723.703125 607.566406 C 723.703125 609.300781 725.246094 610.84375 726.980469 610.84375 Z M 252.949219 296.492188 C 255.261719 296.492188 257.1875 294.566406 257.1875 292.253906 C 257.1875 289.941406 255.261719 288.015625 252.949219 288.015625 C 250.636719 288.015625 248.710938 289.941406 248.710938 292.253906 C 248.710938 294.566406 250.636719 296.492188 252.949219 296.492188 Z M 252.949219 296.492188 " fill-opacity="1" fill-rule="nonzero"/></g><g transform="matrix(1, 0, 0, 1, 313, 1222)"><g clip-path="url(#dad1b30456)"><g fill="#ffffff" fill-opacity="1"><g transform="translate(3.694555, 39.177721)"><g><path d="M 12.953125 -25.3125 C 13.128906 -25.257812 13.300781 -25.164062 13.46875 -25.03125 C 13.644531 -24.894531 13.769531 -24.71875 13.84375 -24.5 L 19.53125 -5.421875 L 18.515625 -5.78125 L 33.953125 -18.34375 C 34.347656 -18.632812 34.742188 -18.6875 35.140625 -18.5 C 35.441406 -18.40625 35.664062 -18.21875 35.8125 -17.9375 C 35.957031 -17.65625 35.976562 -17.351562 35.875 -17.03125 L 28.375 7.4375 C 28.269531 7.75 28.066406 7.984375 27.765625 8.140625 C 27.472656 8.304688 27.164062 8.335938 26.84375 8.234375 C 26.488281 8.117188 26.226562 7.910156 26.0625 7.609375 C 25.90625 7.316406 25.878906 7.015625 25.984375 6.703125 L 32.765625 -15.421875 L 33.4375 -15.15625 L 19.265625 -3.453125 C 19.140625 -3.328125 18.984375 -3.242188 18.796875 -3.203125 C 18.617188 -3.160156 18.4375 -3.1875 18.25 -3.28125 C 18.050781 -3.300781 17.882812 -3.378906 17.75 -3.515625 C 17.625 -3.660156 17.523438 -3.828125 17.453125 -4.015625 L 12.296875 -21.78125 L 13.171875 -22.0625 L 6.21875 0.640625 C 6.113281 0.953125 5.914062 1.1875 5.625 1.34375 C 5.34375 1.507812 5.035156 1.539062 4.703125 1.4375 C 4.378906 1.34375 4.144531 1.148438 4 0.859375 C 3.863281 0.566406 3.847656 0.265625 3.953125 -0.046875 L 11.453125 -24.515625 C 11.546875 -24.816406 11.738281 -25.050781 12.03125 -25.21875 C 12.320312 -25.382812 12.628906 -25.414062 12.953125 -25.3125 Z M 12.953125 -25.3125 "/></g></g></g><g fill="#ffffff" fill-opacity="1"><g transform="translate(39.062485, 49.713442)"><g><path d="M 18.140625 -21.546875 L 3.484375 -0.03125 C 3.316406 0.21875 3.128906 0.390625 2.921875 0.484375 C 2.710938 0.578125 2.488281 0.597656 2.25 0.546875 C 1.882812 0.460938 1.632812 0.300781 1.5 0.0625 C 1.363281 -0.175781 1.3125 -0.441406 1.34375 -0.734375 C 1.34375 -0.867188 1.390625 -1.023438 1.484375 -1.203125 L 17.3125 -24.1875 C 17.488281 -24.445312 17.691406 -24.613281 17.921875 -24.6875 C 18.148438 -24.769531 18.390625 -24.785156 18.640625 -24.734375 C 18.898438 -24.671875 19.113281 -24.546875 19.28125 -24.359375 C 19.445312 -24.171875 19.554688 -23.945312 19.609375 -23.6875 L 24.421875 3.6875 C 24.441406 3.851562 24.429688 4.015625 24.390625 4.171875 C 24.316406 4.535156 24.140625 4.789062 23.859375 4.9375 C 23.578125 5.082031 23.273438 5.117188 22.953125 5.046875 C 22.703125 4.992188 22.492188 4.875 22.328125 4.6875 C 22.171875 4.5 22.0625 4.273438 22 4.015625 L 17.46875 -21.859375 Z M 7.3125 -6.671875 L 8.78125 -8.765625 L 20.90625 -6.125 L 20.859375 -3.71875 Z M 7.3125 -6.671875 "/></g></g></g><g fill="#ffffff" fill-opacity="1"><g transform="translate(68.038723, 55.930889)"><g><path d="M 18.84375 -25.671875 C 20.800781 -25.398438 22.457031 -24.796875 23.8125 -23.859375 C 25.175781 -22.921875 26.242188 -21.726562 27.015625 -20.28125 C 27.785156 -18.84375 28.289062 -17.257812 28.53125 -15.53125 C 28.769531 -13.800781 28.757812 -12.023438 28.5 -10.203125 C 28.15625 -7.660156 27.414062 -5.398438 26.28125 -3.421875 C 25.15625 -1.441406 23.65625 0.0546875 21.78125 1.078125 C 19.914062 2.097656 17.660156 2.425781 15.015625 2.0625 L 4.90625 0.671875 C 4.59375 0.628906 4.332031 0.472656 4.125 0.203125 C 3.925781 -0.0664062 3.851562 -0.359375 3.90625 -0.671875 L 7.390625 -26.03125 C 7.429688 -26.351562 7.585938 -26.613281 7.859375 -26.8125 C 8.128906 -27.019531 8.421875 -27.101562 8.734375 -27.0625 Z M 14.953125 -0.328125 C 17.191406 -0.015625 19.066406 -0.28125 20.578125 -1.125 C 22.097656 -1.96875 23.300781 -3.222656 24.1875 -4.890625 C 25.070312 -6.554688 25.660156 -8.445312 25.953125 -10.5625 C 26.171875 -12.082031 26.195312 -13.5625 26.03125 -15 C 25.863281 -16.4375 25.476562 -17.742188 24.875 -18.921875 C 24.269531 -20.097656 23.410156 -21.078125 22.296875 -21.859375 C 21.179688 -22.648438 19.789062 -23.160156 18.125 -23.390625 L 9.4375 -24.59375 L 9.765625 -24.890625 L 6.484375 -1.078125 L 6.3125 -1.515625 Z M 14.953125 -0.328125 "/></g></g></g><g fill="#ffffff" fill-opacity="1"><g transform="translate(100.271752, 60.175024)"><g><path d="M 14.59375 -24.09375 L 3.453125 -0.5625 C 3.316406 -0.300781 3.15625 -0.109375 2.96875 0.015625 C 2.78125 0.140625 2.5625 0.195312 2.3125 0.1875 C 1.945312 0.164062 1.675781 0.0507812 1.5 -0.15625 C 1.320312 -0.375 1.226562 -0.632812 1.21875 -0.9375 C 1.207031 -1.070312 1.234375 -1.226562 1.296875 -1.40625 L 13.375 -26.5625 C 13.519531 -26.863281 13.695312 -27.066406 13.90625 -27.171875 C 14.113281 -27.273438 14.347656 -27.320312 14.609375 -27.3125 C 14.867188 -27.289062 15.09375 -27.203125 15.28125 -27.046875 C 15.46875 -26.890625 15.613281 -26.679688 15.71875 -26.421875 L 24.6875 -0.125 C 24.726562 0.0273438 24.742188 0.1875 24.734375 0.34375 C 24.710938 0.71875 24.578125 1 24.328125 1.1875 C 24.078125 1.375 23.789062 1.457031 23.46875 1.4375 C 23.207031 1.425781 22.976562 1.335938 22.78125 1.171875 C 22.59375 1.015625 22.453125 0.8125 22.359375 0.5625 L 13.875 -24.296875 Z M 6.1875 -7.71875 L 7.328125 -10.015625 L 19.71875 -9.28125 L 20.046875 -6.90625 Z M 6.1875 -7.71875 "/></g></g></g><g fill="#ffffff" fill-opacity="1"><g transform="translate(129.933792, 61.931439)"><g><path d="M 4.296875 -28.09375 C 4.484375 -28.101562 4.675781 -28.070312 4.875 -28 C 5.082031 -27.925781 5.253906 -27.796875 5.390625 -27.609375 L 16.8125 -11.328125 L 15.734375 -11.328125 L 26.40625 -28.109375 C 26.6875 -28.515625 27.046875 -28.695312 27.484375 -28.65625 C 27.804688 -28.65625 28.082031 -28.539062 28.3125 -28.3125 C 28.539062 -28.09375 28.65625 -27.816406 28.65625 -27.484375 L 29.265625 -1.890625 C 29.273438 -1.566406 29.160156 -1.28125 28.921875 -1.03125 C 28.691406 -0.789062 28.40625 -0.671875 28.0625 -0.671875 C 27.6875 -0.660156 27.378906 -0.769531 27.140625 -1 C 26.898438 -1.238281 26.773438 -1.519531 26.765625 -1.84375 L 26.21875 -25 L 26.921875 -24.9375 L 17.1875 -9.359375 C 17.113281 -9.203125 16.992188 -9.070312 16.828125 -8.96875 C 16.671875 -8.875 16.488281 -8.84375 16.28125 -8.875 C 16.09375 -8.84375 15.910156 -8.867188 15.734375 -8.953125 C 15.566406 -9.046875 15.421875 -9.164062 15.296875 -9.3125 L 4.78125 -24.5625 L 5.53125 -25.09375 L 6.09375 -1.34375 C 6.101562 -1.019531 5.992188 -0.734375 5.765625 -0.484375 C 5.546875 -0.242188 5.265625 -0.117188 4.921875 -0.109375 C 4.578125 -0.109375 4.296875 -0.222656 4.078125 -0.453125 C 3.859375 -0.691406 3.742188 -0.972656 3.734375 -1.296875 L 3.125 -26.890625 C 3.125 -27.203125 3.234375 -27.476562 3.453125 -27.71875 C 3.671875 -27.96875 3.953125 -28.09375 4.296875 -28.09375 Z M 4.296875 -28.09375 "/></g></g></g><g fill="#ffffff" fill-opacity="1"><g transform="translate(166.759321, 60.706314)"><g><path d="M 2.046875 -28.375 L 16.65625 -29.875 C 16.976562 -29.90625 17.269531 -29.816406 17.53125 -29.609375 C 17.800781 -29.410156 17.953125 -29.140625 17.984375 -28.796875 C 18.023438 -28.453125 17.9375 -28.160156 17.71875 -27.921875 C 17.5 -27.679688 17.226562 -27.546875 16.90625 -27.515625 L 3.21875 -26.109375 L 3.546875 -26.8125 L 4.703125 -15.640625 L 4.21875 -16.109375 L 16.15625 -17.34375 C 16.46875 -17.375 16.753906 -17.28125 17.015625 -17.0625 C 17.285156 -16.851562 17.4375 -16.59375 17.46875 -16.28125 C 17.507812 -15.925781 17.414062 -15.628906 17.1875 -15.390625 C 16.96875 -15.160156 16.703125 -15.03125 16.390625 -15 L 4.53125 -13.78125 L 4.84375 -14.203125 L 6.03125 -2.75 L 5.8125 -2.96875 L 19.296875 -4.359375 C 19.617188 -4.390625 19.910156 -4.296875 20.171875 -4.078125 C 20.429688 -3.867188 20.578125 -3.609375 20.609375 -3.296875 C 20.648438 -2.953125 20.5625 -2.660156 20.34375 -2.421875 C 20.125 -2.179688 19.851562 -2.046875 19.53125 -2.015625 L 4.921875 -0.515625 C 4.609375 -0.472656 4.320312 -0.5625 4.0625 -0.78125 C 3.800781 -1 3.65625 -1.269531 3.625 -1.59375 L 1 -27.046875 C 0.96875 -27.367188 1.054688 -27.660156 1.265625 -27.921875 C 1.472656 -28.179688 1.734375 -28.332031 2.046875 -28.375 Z M 2.046875 -28.375 "/></g></g></g><g fill="#ffffff" fill-opacity="1"><g transform="translate(192.71483, 57.795614)"><g/></g></g><g fill="#ffffff" fill-opacity="1"><g transform="translate(207.088129, 55.821719)"><g><path d="M -1.1875 -28.40625 C -1.007812 -28.445312 -0.8125 -28.453125 -0.59375 -28.421875 C -0.382812 -28.390625 -0.191406 -28.296875 -0.015625 -28.140625 L 14.328125 -14.34375 L 13.265625 -14.140625 L 20.515625 -32.671875 C 20.722656 -33.117188 21.039062 -33.363281 21.46875 -33.40625 C 21.78125 -33.476562 22.070312 -33.425781 22.34375 -33.25 C 22.613281 -33.070312 22.785156 -32.816406 22.859375 -32.484375 L 28.359375 -7.484375 C 28.429688 -7.171875 28.375 -6.867188 28.1875 -6.578125 C 28.007812 -6.296875 27.753906 -6.117188 27.421875 -6.046875 C 27.054688 -5.960938 26.726562 -6.007812 26.4375 -6.1875 C 26.15625 -6.375 25.976562 -6.625 25.90625 -6.9375 L 20.921875 -29.546875 L 21.640625 -29.640625 L 15.078125 -12.5 C 15.023438 -12.320312 14.929688 -12.164062 14.796875 -12.03125 C 14.660156 -11.90625 14.484375 -11.835938 14.265625 -11.828125 C 14.097656 -11.753906 13.914062 -11.742188 13.71875 -11.796875 C 13.53125 -11.859375 13.367188 -11.957031 13.234375 -12.09375 L -0.03125 -25.015625 L 0.609375 -25.6875 L 5.71875 -2.484375 C 5.789062 -2.171875 5.738281 -1.875 5.5625 -1.59375 C 5.394531 -1.3125 5.144531 -1.132812 4.8125 -1.0625 C 4.46875 -0.988281 4.164062 -1.046875 3.90625 -1.234375 C 3.644531 -1.421875 3.476562 -1.671875 3.40625 -1.984375 L -2.09375 -26.984375 C -2.164062 -27.296875 -2.117188 -27.59375 -1.953125 -27.875 C -1.785156 -28.15625 -1.53125 -28.332031 -1.1875 -28.40625 Z M -1.1875 -28.40625 "/></g></g></g><g fill="#ffffff" fill-opacity="1"><g transform="translate(243.111916, 47.605344)"><g><path d="M 14.109375 -33.765625 C 14.460938 -33.867188 14.78125 -33.84375 15.0625 -33.6875 C 15.34375 -33.539062 15.53125 -33.304688 15.625 -32.984375 L 20.578125 -17.171875 C 21.171875 -15.296875 21.253906 -13.453125 20.828125 -11.640625 C 20.410156 -9.835938 19.59375 -8.25 18.375 -6.875 C 17.164062 -5.5 15.617188 -4.515625 13.734375 -3.921875 C 11.847656 -3.328125 10.003906 -3.25 8.203125 -3.6875 C 6.410156 -4.125 4.832031 -4.960938 3.46875 -6.203125 C 2.101562 -7.453125 1.125 -9.015625 0.53125 -10.890625 L -4.421875 -26.703125 C -4.515625 -27.023438 -4.488281 -27.328125 -4.34375 -27.609375 C -4.207031 -27.898438 -3.945312 -28.109375 -3.5625 -28.234375 C -3.257812 -28.328125 -2.957031 -28.296875 -2.65625 -28.140625 C -2.351562 -27.992188 -2.15625 -27.757812 -2.0625 -27.4375 L 2.890625 -11.625 C 3.347656 -10.15625 4.109375 -8.941406 5.171875 -7.984375 C 6.242188 -7.035156 7.476562 -6.394531 8.875 -6.0625 C 10.269531 -5.738281 11.648438 -5.789062 13.015625 -6.21875 C 14.441406 -6.664062 15.628906 -7.421875 16.578125 -8.484375 C 17.535156 -9.546875 18.175781 -10.773438 18.5 -12.171875 C 18.832031 -13.566406 18.769531 -15 18.3125 -16.46875 L 13.359375 -32.28125 C 13.265625 -32.601562 13.285156 -32.90625 13.421875 -33.1875 C 13.554688 -33.46875 13.785156 -33.660156 14.109375 -33.765625 Z M 14.109375 -33.765625 "/></g></g></g></g></g></svg>